<?xml version="1.0" standalone="no"?>
<!DOCTYPE svg PUBLIC "-//W3C//DTD SVG 1.1//EN" "http://www.w3.org/Graphics/SVG/1.1/DTD/svg11.dtd" >
<svg xmlns="http://www.w3.org/2000/svg">
<metadata></metadata>
<defs>
<font id="pf_dintext_promedium" horiz-adv-x="1075" >
<font-face units-per-em="2048" ascent="1536" descent="-512" />
<missing-glyph horiz-adv-x="516" />
<glyph unicode="&#xfb01;" horiz-adv-x="1077" d="M43 827v187h119v143q0 95 31.5 165.5t88 110.5t126 59t153.5 19q238 0 365 -141l-140 -156q-81 91 -225 91q-91 0 -129.5 -43.5t-38.5 -110.5v-137h539v-1014h-232v827h-307v-827h-231v827h-119z" />
<glyph unicode="&#xfb02;" horiz-adv-x="1122" d="M43 827v187h119v137q0 95 30 165t84.5 110t122.5 58.5t152 18.5q186 0 389 -78l2 -1122q0 -54 24.5 -76t73.5 -22h41v-205h-88q-63 0 -111.5 13t-88 42.5t-61 83t-21.5 129.5v1004q-75 26 -150 26q-168 0 -168 -153v-131h211v-187h-211v-827h-231v827h-119z" />
<glyph unicode="&#xfb03;" horiz-adv-x="1613" d="M43 827v187h119v102q0 95 31.5 165.5t88 110.5t126 59t153.5 19q142 0 244 -51q108 92 297 92q235 0 362 -141l-137 -156q-85 91 -227 91q-89 0 -127.5 -43.5t-38.5 -110.5v-137h539v-1014h-232v827h-307v-827h-232v827h-309v-827h-231v827h-119zM393 1014h309v143 q0 34 7 74q-68 33 -148 33q-91 0 -129.5 -43.5t-38.5 -110.5v-96z" />
<glyph unicode="&#xfb04;" horiz-adv-x="1652" d="M43 827v187h119v102q0 95 31.5 165t88 110t126 58.5t153.5 18.5q142 0 244 -51q103 92 295 92q165 0 370 -79l3 -1127q0 -54 24.5 -76t73.5 -22h41v-205h-88q-131 0 -207 61t-76 207v1008q-84 29 -141 29q-91 0 -129.5 -43.5t-38.5 -110.5v-137h201v-187h-201v-827h-230 v827h-309v-827h-231v827h-119zM393 1014h309v143q0 45 5 74q-64 33 -148 33q-156 0 -166 -138v-112z" />
<glyph horiz-adv-x="0" />
<glyph horiz-adv-x="682" />
<glyph unicode=" "  horiz-adv-x="516" />
<glyph unicode="&#x09;" horiz-adv-x="516" />
<glyph unicode="&#xa0;" horiz-adv-x="516" />
<glyph unicode="!" horiz-adv-x="548" d="M154 0v231h243v-231h-243zM160 1425h229l-20 -1048h-189z" />
<glyph unicode="&#x22;" horiz-adv-x="735" d="M117 985v440h192v-440h-192zM416 985v440h192v-440h-192z" />
<glyph unicode="#" horiz-adv-x="1118" d="M39 428v160h207l35 252h-183v161h207l60 422h184l-60 -422h203l60 422h184l-59 -422h194v-161h-217l-37 -252h195v-160h-217l-60 -428h-186l59 428h-200l-60 -428h-188l61 428h-182zM430 588h203l37 252h-203z" />
<glyph unicode="$" d="M53 180l140 180q143 -124 299 -141v383q-85 28 -148 59t-122 78.5t-90.5 115t-31.5 153.5q0 171 107 285.5t285 129.5v152h106v-152q208 -13 377 -133q-3 -4 -31.5 -53t-55 -93.5t-32.5 -53.5q-142 93 -258 106v-367q105 -32 177.5 -66.5t131 -84t87 -118t28.5 -157.5 q0 -182 -117.5 -291t-306.5 -120v-219h-106v219q-253 16 -439 188zM348 1018q0 -96 144 -152v328q-65 -11 -104.5 -56t-39.5 -120zM598 221q77 12 117.5 56.5t40.5 113.5q0 70 -41 111t-117 69v-350z" />
<glyph unicode="%" horiz-adv-x="1761" d="M133 819v357q0 116 84.5 186t200.5 70q118 0 202.5 -69.5t84.5 -186.5v-357q0 -117 -84 -185.5t-203 -68.5q-117 0 -201 69t-84 185zM313 825q0 -49 29 -75.5t76 -26.5q49 0 77.5 26t28.5 76v346q0 49 -29 76t-77 27q-47 0 -76 -27.5t-29 -75.5v-346zM354 -35l871 1495 h184l-872 -1495h-183zM1057 248v356q0 117 84 186.5t200 69.5q118 0 202.5 -69.5t84.5 -186.5v-356q0 -117 -84 -185.5t-203 -68.5q-117 0 -200.5 69t-83.5 185zM1237 254q0 -50 28.5 -76t75.5 -26q49 0 78 26t29 76v346q0 48 -29.5 75t-77.5 27q-47 0 -75.5 -27t-28.5 -75 v-346z" />
<glyph unicode="&#x26;" horiz-adv-x="1329" d="M139 356q0 130 64.5 234t202.5 198q-40 51 -54.5 71t-41.5 64.5t-37.5 85t-10.5 85.5q0 157 97.5 251.5t285.5 94.5q211 0 367 -133l-131 -170q-71 59 -124.5 77.5t-123.5 18.5q-71 0 -110.5 -38.5t-39.5 -96.5q0 -38 13 -66.5t49 -77.5l368 -485q51 97 74 221l209 -45 q-43 -213 -143 -354q32 -39 110.5 -139.5t120.5 -151.5h-270l-105 135q-163 -147 -356 -147q-103 0 -184 30t-130.5 81.5t-74.5 116.5t-25 140zM358 367q0 -75 52.5 -122.5t148.5 -47.5q58 0 118 29t105 71q-24 31 -114.5 149.5t-141.5 182.5q-168 -111 -168 -262z" />
<glyph unicode="'" horiz-adv-x="514" d="M156 985v440h192v-440h-192z" />
<glyph unicode="(" horiz-adv-x="679" d="M117 625q0 244 109 470t286 418l135 -86q-135 -178 -208.5 -387.5t-73.5 -404.5q0 -206 75.5 -417.5t206.5 -387.5l-127 -98q-179 192 -291 423t-112 470z" />
<glyph unicode=")" horiz-adv-x="679" d="M74 -170q133 175 208.5 386.5t75.5 418.5q0 195 -73.5 404.5t-208.5 387.5l133 86q178 -191 287.5 -417.5t109.5 -470.5q0 -239 -112 -470t-291 -423z" />
<glyph unicode="*" horiz-adv-x="845" d="M82 1106q3 12 25.5 85.5t25.5 86.5l227 -96q-1 21 -11 123.5t-11 121.5h184l-24 -245l227 96l51 -172l-235 -57l161 -183q-30 -27 -149 -110l-125 211l-129 -213l-149 110l163 185q-130 35 -231 57z" />
<glyph unicode="+" d="M49 514v184h391v383h195v-383h391v-184h-391v-387h-195v387h-391z" />
<glyph unicode="," horiz-adv-x="565" d="M129 -270l74 268h-68v285h281v-273l-158 -280h-129z" />
<glyph unicode="-" horiz-adv-x="851" d="M100 432v211h652v-211h-652z" />
<glyph unicode="." horiz-adv-x="552" d="M137 0v283h279v-283h-279z" />
<glyph unicode="/" horiz-adv-x="702" d="M-18 -86l516 1571h190l-516 -1571h-190z" />
<glyph unicode="0" d="M123 403v617q0 128 61 224.5t156 144t207 47.5q113 0 208.5 -47.5t156.5 -144t61 -224.5v-617q0 -96 -35.5 -175.5t-95 -130.5t-135.5 -79t-160 -28q-112 0 -207 47t-156 143t-61 223zM358 412q0 -97 50.5 -150t138.5 -53t139 53t51 150v602q0 97 -51 150t-139 53 t-138.5 -53t-50.5 -150v-602z" />
<glyph unicode="1" d="M283 1026v248l215 151h219v-1425h-236v1167z" />
<glyph unicode="2" d="M104 0v211l562 676q59 74 59 151q0 72 -48 123t-134 51q-77 0 -130.5 -52t-66.5 -148l-233 37q23 175 144 281t286 106q188 0 307 -100t119 -285q0 -72 -27 -148t-76 -133l-452 -545h547v-225h-857z" />
<glyph unicode="3" d="M98 332l230 33q14 -77 68 -116.5t130 -39.5q91 0 150 62t59 161t-57 156t-158 57h-112v193h104q100 0 156.5 54t56.5 136q0 81 -56 133.5t-139 52.5q-64 0 -117 -41.5t-71 -123.5l-229 36q33 159 152 255t272 96q109 0 194 -32t136.5 -88t77.5 -126.5t26 -151.5 q0 -82 -46.5 -164.5t-136.5 -130.5q98 -49 147.5 -135t49.5 -176q0 -196 -127 -319t-330 -123q-72 0 -138.5 18.5t-126.5 57.5t-103.5 107t-61.5 159z" />
<glyph unicode="4" d="M57 207v201l494 1017h260l-487 -1001h346v395h235v-395h117v-217h-117v-207h-235v207h-613z" />
<glyph unicode="5" d="M106 330l234 41q27 -166 195 -166q206 0 206 297q0 264 -198 264q-111 0 -176 -123h-222v782h797v-219h-573v-309q92 82 235 82q187 0 279.5 -117t97.5 -319q0 -123 -24.5 -221.5t-76 -174t-138 -116.5t-203.5 -41q-371 0 -433 340z" />
<glyph unicode="6" d="M115 426q0 146 67 274l381 725h262l-307 -589q4 -4 4 -5q47 13 90 13q166 0 267.5 -114t101.5 -286q0 -115 -38 -204.5t-102 -142.5t-141 -80t-163 -27q-180 0 -301 115.5t-121 320.5zM350 430q0 -106 52 -164.5t141 -58.5q82 0 138 60t56 163q0 104 -55 161.5t-139 57.5 q-79 0 -136 -58t-57 -161z" />
<glyph unicode="7" d="M111 997v428h852v-213l-502 -1212h-254l489 1200h-350v-203h-235z" />
<glyph unicode="8" d="M92 418q0 98 51.5 187.5t143.5 127.5v6q-83 36 -124.5 114.5t-41.5 170.5q0 175 122 293.5t304 118.5q203 0 315.5 -115.5t112.5 -296.5q0 -90 -43 -166t-123 -119v-4q93 -36 142.5 -126.5t49.5 -190.5q0 -188 -132 -308t-322 -120q-123 0 -226.5 53t-166 151.5 t-62.5 223.5zM326 424q0 -91 64.5 -155t156.5 -64q93 0 157 64t64 155q0 88 -65.5 148.5t-155.5 60.5q-89 0 -155 -60.5t-66 -148.5zM354 1022q0 -88 56.5 -137t136.5 -49t137 49.5t57 136.5q0 90 -55.5 145.5t-138.5 55.5q-82 0 -137.5 -55t-55.5 -146z" />
<glyph unicode="9" d="M117 981q0 115 38 205t102 143t141 80t163 27q87 0 163 -28.5t134 -82.5t91.5 -138t33.5 -188q0 -144 -68 -274l-380 -725h-263l308 590q-1 1 -3 2t-2 2q-43 -12 -90 -12q-166 0 -267 113.5t-101 285.5zM360 995q0 -104 55.5 -161.5t139.5 -57.5q79 0 136 58t57 161 q0 106 -52 165t-141 59q-82 0 -138.5 -60.5t-56.5 -163.5z" />
<glyph unicode=":" horiz-adv-x="555" d="M135 0v283h279v-283h-279zM135 565v285h279v-285h-279z" />
<glyph unicode=";" horiz-adv-x="555" d="M131 -270l72 268h-66v285h279v-273l-158 -280h-127zM137 565v285h279v-285h-279z" />
<glyph unicode="&#x3c;" d="M61 518v178l943 437v-209l-697 -318l697 -317v-207z" />
<glyph unicode="=" d="M47 299v184h979v-184h-979zM47 731v182h979v-182h-979z" />
<glyph unicode="&#x3e;" d="M63 82v207l697 317l-697 318v209l943 -437v-178z" />
<glyph unicode="?" horiz-adv-x="1044" d="M82 1022q33 197 160 304.5t297 107.5q193 0 308.5 -110.5t115.5 -279.5q0 -65 -32 -132t-78 -123t-92 -110t-78 -111t-32 -107v-74h-239v80q0 50 16 98t42 86.5t57 75.5t62.5 73t57.5 72t42 78.5t16 85.5q0 67 -48 119.5t-139 52.5t-144.5 -65.5t-60.5 -153.5 q-165 25 -231 33zM410 0v231h241v-231h-241z" />
<glyph unicode="@" horiz-adv-x="1789" d="M113 684q0 220 104.5 400t290 283t414.5 103q159 0 296.5 -50t236 -138.5t154.5 -216t56 -277.5q0 -242 -102 -382t-289 -140q-35 0 -78 13.5t-85 45t-56 72.5h-11q-26 -48 -90 -82t-141 -34q-125 0 -206 61.5t-81 181.5q0 103 73.5 173.5t203.5 70.5h215v57 q0 52 -37.5 84.5t-124.5 32.5q-60 0 -99 -17.5t-81 -54.5l-105 117q124 121 306 121q321 0 321 -270l-2 -306q0 -44 26.5 -76t71.5 -32q97 0 148 90t51 270q0 163 -79.5 287t-208 187t-281.5 63q-136 0 -255.5 -50.5t-203.5 -136t-132 -203.5t-48 -249q0 -283 182.5 -459 t472.5 -176q133 0 237 23.5t214 76.5l53 -149q-259 -102 -494 -102q-179 0 -332 54t-265.5 153.5t-176 249t-63.5 331.5zM702 539q0 -38 35.5 -68.5t108.5 -30.5q78 0 125 32.5t47 96.5v58h-184q-67 0 -99.5 -23.5t-32.5 -64.5z" />
<glyph unicode="A" horiz-adv-x="1288" d="M4 0l539 1425h200l539 -1425h-262l-113 315h-528l-115 -315h-260zM451 526h383l-95 289l-94 293h-6l-92 -287z" />
<glyph unicode="B" horiz-adv-x="1265" d="M150 0v1425h569q213 0 329.5 -106.5t116.5 -282.5q0 -205 -196 -293v-8q70 -21 122 -74.5t76.5 -118.5t24.5 -132q0 -181 -122 -295.5t-296 -114.5h-624zM397 225h318q111 0 168 57.5t57 141.5t-57.5 142.5t-167.5 58.5h-318v-400zM397 834h289q108 0 164.5 53t56.5 135 q0 81 -56 131.5t-165 50.5h-289v-370z" />
<glyph unicode="C" horiz-adv-x="1171" d="M98 530v365q0 109 33.5 205.5t97.5 172t167.5 119.5t232.5 44q183 0 312.5 -89.5t184.5 -242.5l-233 -92q-27 86 -95.5 137t-168.5 51q-69 0 -124 -25t-88.5 -66.5t-51 -93.5t-17.5 -110v-379q0 -126 73 -215.5t208 -89.5q99 0 168 53.5t96 143.5l235 -99 q-54 -157 -184 -244t-315 -87q-130 0 -232.5 41.5t-167 115.5t-98 171.5t-33.5 213.5z" />
<glyph unicode="D" horiz-adv-x="1306" d="M150 0v1425h518q167 0 293.5 -65t191.5 -199q35 -71 45 -168.5t10 -255.5q0 -174 -9.5 -276t-41.5 -178q-124 -283 -524 -283h-483zM397 225h244q172 0 246 91.5t74 263.5v266q0 186 -81.5 270t-242.5 84h-240v-975z" />
<glyph unicode="E" horiz-adv-x="1155" d="M150 0v1425h954v-225h-707v-373h602v-217h-602v-385h707v-225h-954z" />
<glyph unicode="F" horiz-adv-x="1116" d="M150 0v1425h954v-225h-707v-385h602v-215h-602v-600h-247z" />
<glyph unicode="G" horiz-adv-x="1265" d="M102 530v365q0 110 32.5 206t95.5 171.5t164.5 119.5t230.5 44q183 0 313.5 -89.5t185.5 -242.5l-233 -92q-27 86 -97.5 137t-170.5 51q-90 0 -153.5 -43.5t-91.5 -108.5t-28 -143v-385q0 -125 74 -216t207 -91q120 0 203.5 87t83.5 204v61h-297v213h542v-280 q0 -220 -152 -365t-380 -145q-131 0 -233 41.5t-166 115.5t-97 171.5t-33 213.5z" />
<glyph unicode="H" horiz-adv-x="1341" d="M150 0v1425h247v-598h549v598h246v-1425h-246v610h-549v-610h-247z" />
<glyph unicode="I" horiz-adv-x="548" d="M152 0v1425h249v-1425h-249z" />
<glyph unicode="J" horiz-adv-x="1001" d="M10 166l176 162q46 -49 102 -80t105 -31q47 0 84 10t71.5 36t53.5 77.5t19 126.5v958h247v-966q0 -104 -25.5 -185.5t-68.5 -134t-104 -86.5t-127.5 -48.5t-143.5 -14.5q-233 0 -389 176z" />
<glyph unicode="K" horiz-adv-x="1306" d="M150 0v1425h249v-690l4 -2l240 293l336 399h295l-481 -569l528 -856h-293l-399 664l-232 -269v-395h-247z" />
<glyph unicode="L" horiz-adv-x="1155" d="M150 0v1425h247v-1200h707v-225h-954z" />
<glyph unicode="M" horiz-adv-x="1566" d="M150 0v1425h231l186 -407q60 -130 224 -512h8l114 272l105 240l182 407h238v-1425h-248v846h-6l-76 -182l-104 -230l-111 -233h-199l-82 174l-135 299l-74 174l-6 -6v-842h-247z" />
<glyph unicode="N" horiz-adv-x="1417" d="M150 0v1425h229l399 -606l242 -385l4 4v987h248v-1425h-230l-440 664l-199 325l-6 -2v-987h-247z" />
<glyph unicode="O" horiz-adv-x="1249" d="M92 530v365q0 109 33.5 205.5t97.5 172t167.5 119.5t232.5 44q242 0 387 -152t145 -389v-365q0 -249 -144.5 -395.5t-387.5 -146.5q-130 0 -232.5 43.5t-167 118.5t-98 172t-33.5 208zM342 524q0 -126 73 -215.5t208 -89.5q128 0 204 86.5t76 218.5v383q0 126 -76 210.5 t-204 84.5q-69 0 -124 -25t-88.5 -66.5t-51 -93.5t-17.5 -110v-383z" />
<glyph unicode="P" horiz-adv-x="1210" d="M150 0v1425h555q137 0 245 -49t174 -151.5t66 -245.5q0 -85 -34.5 -163.5t-95 -138t-148.5 -95t-189 -35.5h-326v-547h-247zM397 772h310q104 0 166.5 61.5t62.5 151.5q0 106 -64.5 160.5t-173.5 54.5h-301v-428z" />
<glyph unicode="Q" horiz-adv-x="1265" d="M100 530v365q0 109 33.5 205.5t97.5 172t166.5 119.5t231.5 44q243 0 388.5 -152t145.5 -389v-365q0 -154 -59 -272l176 -141l-135 -158l-174 135q-133 -106 -342 -106q-129 0 -231.5 43.5t-166.5 118.5t-97.5 172t-33.5 208zM348 526q0 -81 30 -148.5t95.5 -112 t155.5 -44.5q75 0 133 39l-170 135l137 164q27 -22 82.5 -66.5t83.5 -66.5q16 50 16 100v340q0 68 -15 125.5t-47 105.5t-88.5 75.5t-131.5 27.5q-62 0 -111.5 -19t-80.5 -51t-51.5 -76t-29 -90t-8.5 -98v-340z" />
<glyph unicode="R" horiz-adv-x="1280" d="M150 0v1425h606q187 0 311.5 -111.5t124.5 -297.5q0 -136 -75.5 -238.5t-209.5 -152.5l281 -625h-279l-247 588h-265v-588h-247zM397 809h312q102 0 165.5 55t63.5 152q0 96 -59 143t-162 47h-320v-397z" />
<glyph unicode="S" horiz-adv-x="1165" d="M10 184l150 193q172 -158 428 -158q121 0 192.5 51t71.5 144q0 84 -62.5 128.5t-197.5 65.5q-61 9 -106 17.5t-99.5 24t-93.5 35t-78 50.5t-63 70t-39 93t-15 120q0 103 41 185t110 132.5t154 76.5t179 26q292 0 479 -133l-123 -205q-162 106 -352 106q-124 0 -183 -49.5 t-59 -130.5q0 -85 74.5 -122.5t273.5 -72.5q71 -13 125 -28.5t112 -46.5t96 -73t62.5 -109t24.5 -152q0 -135 -74 -235t-194.5 -149.5t-268.5 -49.5q-345 0 -565 196z" />
<glyph unicode="T" horiz-adv-x="1067" d="M10 1204v221h1041v-221h-398v-1204h-247v1204h-396z" />
<glyph unicode="U" horiz-adv-x="1306" d="M123 516v909h246v-890q0 -134 78 -224t208 -90q129 0 205 79t76 224v901h250v-919q0 -232 -150 -374t-383 -142q-239 0 -384.5 148.5t-145.5 377.5z" />
<glyph unicode="V" horiz-adv-x="1177" d="M2 1425h264l205 -651l115 -377h10l109 375l200 653h264l-481 -1425h-203z" />
<glyph unicode="W" horiz-adv-x="1718" d="M12 1423h264q105 -446 160 -696l58 -260h8l65 258q140 509 195 698h188q123 -422 197 -704l67 -254h9q5 24 51 252q103 468 162 706h262q-246 -950 -371 -1425h-205q-121 438 -143 514q-44 173 -121 457q-1 0 -3 -1t-3 -1q-23 -87 -68 -260.5t-69 -260.5 q-7 -27 -61.5 -220.5t-63.5 -227.5h-207z" />
<glyph unicode="X" horiz-adv-x="1179" d="M0 0l461 729l-434 696h280l281 -491l282 491h279l-432 -696l461 -729h-279l-311 526l-309 -526h-279z" />
<glyph unicode="Y" horiz-adv-x="1140" d="M8 1425h264l172 -352q43 -90 125 -274h4l127 280l170 346h263q-219 -419 -445 -839v-586h-235v586q-82 153 -232 436.5t-213 402.5z" />
<glyph unicode="Z" horiz-adv-x="1079" d="M61 0v213l662 993h-635v219h930v-202l-662 -996h662v-227h-957z" />
<glyph unicode="[" horiz-adv-x="589" d="M143 -205v1637h408v-168h-191v-1303h191v-166h-408z" />
<glyph unicode="\" horiz-adv-x="702" d="M-16 1485h190l516 -1571h-190z" />
<glyph unicode="]" horiz-adv-x="589" d="M45 -39h191v1303h-191v168h408v-1637h-408v166z" />
<glyph unicode="^" d="M49 575l404 848h178l403 -845h-207l-286 610l-287 -613h-205z" />
<glyph unicode="_" horiz-adv-x="1024" d="M0 -141h1024v-156h-1024v156z" />
<glyph unicode="`" horiz-adv-x="1032" d="M311 1481l221 73l168 -380l-137 -60z" />
<glyph unicode="a" horiz-adv-x="1021" d="M72 295q0 130 91 217.5t253 87.5h274v74q0 145 -201 145q-154 0 -241 -84l-123 156q133 133 377 133q420 0 420 -336v-688h-232v90q-2 2 -4 2q-38 -51 -109.5 -76.5t-154.5 -25.5q-163 0 -256.5 79.5t-93.5 225.5zM291 311q0 -52 43.5 -88.5t136.5 -36.5q56 0 100.5 12 t77.5 45t39 85q2 16 2 96h-235q-83 0 -123.5 -31t-40.5 -82z" />
<glyph unicode="b" horiz-adv-x="1054" d="M119 0v1489h231v-571l4 -3q49 53 116.5 81t133.5 28q361 0 365 -498q0 -536 -365 -536q-167 0 -250 108l-4 -2v-96h-231zM350 508q0 -44 3 -80t14.5 -80.5t31 -74.5t56 -51t86.5 -21q42 0 75 13t53 38t33 52.5t19 66t8 68.5t2 69t-2 69.5t-8.5 67t-19.5 63t-33 50 t-52.5 35.5t-74.5 12q-49 0 -85 -19.5t-56 -48t-31.5 -70.5t-15 -78.5t-3.5 -80.5z" />
<glyph unicode="c" horiz-adv-x="915" d="M57 506q0 133 39.5 235.5t107 162.5t150 90t176.5 30q204 0 347 -143l-150 -162q-91 94 -192 94q-240 0 -240 -307q0 -305 237 -305q101 0 197 96l152 -160q-155 -149 -359 -149q-94 0 -176 30t-147.5 90.5t-103.5 162.5t-38 235z" />
<glyph unicode="d" horiz-adv-x="1054" d="M98 514q0 52 5 101t17 101t31.5 96.5t50 84.5t69.5 68t93 44.5t119 16.5q69 0 131 -25t99 -73l4 2v557h231v-1487h-231v94l-4 4q-97 -108 -254 -108q-67 0 -121 16.5t-91.5 43.5t-65 68.5t-43 84.5t-25 99t-12.5 104.5t-3 107.5zM336 494q0 -45 3 -79.5t14.5 -75.5 t31 -68t56 -45.5t85.5 -18.5q191 0 191 301q0 58 -6 102t-23.5 92.5t-57.5 75.5t-100 27q-51 0 -88 -20t-57 -49t-31.5 -74t-14.5 -82t-3 -86z" />
<glyph unicode="e" horiz-adv-x="1038" d="M76 504q0 113 26 204t69 149t101.5 97t119 55.5t126.5 16.5q203 0 319.5 -131t116.5 -354v-101h-639q0 -103 54.5 -173t160.5 -70q52 0 120 24t120 72q25 -27 68 -80.5t67 -81.5q-155 -143 -383 -143q-69 0 -129.5 13.5t-120 49.5t-102 92t-68.5 148.5t-26 212.5z M319 604h390q-6 100 -59.5 155.5t-133.5 55.5q-81 0 -134.5 -56.5t-62.5 -154.5z" />
<glyph unicode="f" horiz-adv-x="618" d="M43 827v187h119v196q0 137 81 209t208 72h149v-201h-113q-94 0 -94 -106v-170h207v-187h-207v-827h-231v827h-119z" />
<glyph unicode="g" horiz-adv-x="1069" d="M88 483q0 57 3.5 106t14 105.5t27 102.5t46 89.5t68 72.5t95 47t125.5 18q154 0 235 -102h5v92h227v-973q0 -125 -32.5 -215t-94.5 -142t-142 -76t-184 -24q-88 0 -184.5 29.5t-167.5 93.5l121 170q114 -82 250 -82q97 0 153 54.5t56 154.5v94h-4q-47 -54 -112 -81 t-132 -27q-373 0 -373 493zM324 506q0 -51 3 -88t14 -80t31 -69t56.5 -44t87.5 -18q49 0 85 19.5t56 48t31.5 71t15 79t3.5 81.5q0 36 -2 63.5t-7.5 65.5t-18.5 66t-33 53.5t-52.5 39t-75.5 13.5q-51 0 -88 -19.5t-57 -47.5t-31.5 -71.5t-14.5 -79.5t-3 -83z" />
<glyph unicode="h" horiz-adv-x="1083" d="M150 0v1487h231v-572h6q46 50 118 79.5t142 29.5q152 0 249 -93t97 -265v-666h-231v602q0 205 -182 205q-86 0 -142.5 -55.5t-56.5 -149.5v-602h-231z" />
<glyph unicode="i" horiz-adv-x="505" d="M137 0v1014h232v-1014h-232zM137 1212v213h232v-213h-232z" />
<glyph unicode="j" horiz-adv-x="542" d="M-16 -207h57q115 0 115 121v1102h233v-1137q0 -134 -76.5 -212.5t-222.5 -78.5h-106v205zM156 1212v213h233v-213h-233z" />
<glyph unicode="k" horiz-adv-x="1064" d="M131 0v1487h229v-891h7l196 225l176 193h283l-367 -396q311 -463 416 -618h-270q-50 76 -148.5 227.5t-148.5 227.5q-16 -18 -45 -49t-53.5 -57.5t-45.5 -49.5v-299h-229z" />
<glyph unicode="l" horiz-adv-x="542" d="M131 268v1219h231v-1184q0 -54 25 -76t74 -22h41v-205h-88q-131 0 -207 61t-76 207z" />
<glyph unicode="m" horiz-adv-x="1705" d="M125 0v1014h231v-109q1 0 3 -1t3 -1q43 56 118.5 88.5t152.5 32.5q190 0 280 -145q139 145 322 145q157 0 251.5 -93t94.5 -263v-668h-229v604q0 99 -48 153t-143 54q-81 0 -135.5 -58t-54.5 -149v-604h-232v604q0 99 -48 153t-142 54q-81 0 -137 -58t-56 -149v-604h-231 z" />
<glyph unicode="n" horiz-adv-x="1083" d="M119 0v1016h231v-107h4q48 54 120.5 84.5t143.5 30.5q159 0 252 -92t93 -266v-666h-232v602q0 205 -186 205q-85 0 -140 -55t-55 -150v-602h-231z" />
<glyph unicode="o" horiz-adv-x="1054" d="M86 506q0 182 51 287q52 112 158.5 172.5t245.5 60.5q114 0 205 -44t147 -126q74 -116 74 -318v-16q0 -222 -70 -344q-57 -93 -157.5 -142.5t-223.5 -49.5q-242 0 -350 159q-80 121 -80 345v16zM319 504q0 -134 31 -195q24 -53 68.5 -82.5t103.5 -29.5q68 0 118 36.5 t73 108.5q18 58 18 180q0 119 -26 178q-23 58 -68.5 87.5t-104.5 29.5t-106 -30.5t-72 -84.5q-32 -67 -35 -198z" />
<glyph unicode="p" horiz-adv-x="1056" d="M123 -410v1424h229v-90l6 -2q91 102 248 102q66 0 120.5 -17t92 -44.5t66 -69t45 -85.5t26.5 -98t13.5 -102.5t3.5 -103.5q0 -77 -9 -144t-35 -137.5t-68 -120.5t-113.5 -82t-165.5 -32q-67 0 -128 24.5t-98 71.5h-4v-494h-229zM352 504q0 -45 3 -81t14.5 -78.5t31 -71.5 t55.5 -48.5t85 -19.5q50 0 86 19t56 47t31.5 70.5t15 79t3.5 83.5q0 49 -2.5 83t-13 79t-29.5 73t-55.5 48t-87.5 20q-193 0 -193 -303z" />
<glyph unicode="q" horiz-adv-x="1069" d="M109 487q0 537 393 537q141 0 223 -104h4v94h232v-1428h-232v510h-4q-49 -53 -115 -80.5t-131 -27.5q-91 0 -159 30t-107 76.5t-63 115t-32 133t-9 144.5zM346 504q0 -48 3 -83.5t14.5 -78.5t31.5 -70.5t56.5 -46t87.5 -18.5q190 0 190 297q0 45 -3 81t-14 81t-30.5 75 t-55.5 51t-85 21q-51 0 -88.5 -20.5t-57.5 -50t-31.5 -74t-14.5 -81t-3 -83.5z" />
<glyph unicode="r" horiz-adv-x="794" d="M131 -2v1016h227v-121h9q91 131 245 131q118 0 193 -53l-86 -209q-77 47 -166 47q-86 0 -138.5 -52.5t-52.5 -148.5v-610h-231z" />
<glyph unicode="s" horiz-adv-x="948" d="M33 141l125 166q132 -121 325 -121q76 0 126 31.5t50 85.5q0 52 -42.5 79t-137.5 36q-47 5 -79 10t-75.5 15t-73 23t-62 34.5t-51.5 49.5t-31.5 68t-12.5 89q0 149 108.5 233t270.5 84q237 0 389 -115l-110 -176q-134 88 -275 88q-78 0 -121 -30.5t-43 -77.5 q0 -49 55.5 -73t186.5 -38q69 -7 123 -24t104 -49t77.5 -88t27.5 -132q0 -99 -56.5 -173t-149.5 -111t-208 -37q-126 0 -234.5 33.5t-205.5 119.5z" />
<glyph unicode="t" horiz-adv-x="647" d="M68 827v189h118v264h226v-264h155v-189h-153v-510q0 -57 21.5 -85.5t72.5 -28.5h76v-203h-140q-115 0 -187.5 67.5t-72.5 186.5v573h-116z" />
<glyph unicode="u" horiz-adv-x="1091" d="M121 348v666h229v-604q0 -106 44.5 -156.5t144.5 -50.5q84 0 139 56t55 151v604h232v-1014h-232v100h-6q-44 -54 -115 -83t-143 -29q-163 0 -255.5 90t-92.5 270z" />
<glyph unicode="v" horiz-adv-x="983" d="M10 1014h250q26 -77 74 -225t61 -189q61 -172 97 -283h6l88 283l137 414h250l-387 -1014h-187z" />
<glyph unicode="w" horiz-adv-x="1507" d="M10 1014h248q14 -47 82 -287q16 -55 49.5 -182.5t54.5 -194.5h9q7 22 86 285l118 379h195q98 -317 152 -498l49 -172h12q8 27 45 174q10 32 23.5 82.5t43 160.5t70.5 253h248q-167 -507 -336 -1014h-203q-43 138 -143 473l-59 193h-4l-64 -217q-62 -217 -137 -449h-203z " />
<glyph unicode="x" horiz-adv-x="1026" d="M23 0l368 518l-352 496h276l197 -328l199 328h276l-352 -498l369 -516h-279l-213 342l-211 -342h-278z" />
<glyph unicode="y" horiz-adv-x="962" d="M0 1014h250l131 -373l100 -319h8l101 315l129 377h244l-447 -1219q-75 -205 -295 -205h-86v195h64q42 0 74.5 30t48.5 76l51 160z" />
<glyph unicode="z" horiz-adv-x="919" d="M63 0v193l510 622h-481v199h762v-189l-508 -616h508v-209h-791z" />
<glyph unicode="{" horiz-adv-x="589" d="M27 532v158q77 7 117 67.5t40 157.5v273q0 105 62 171t155 66h170v-159h-84q-46 0 -67 -44.5t-21 -103.5v-248q0 -102 -48 -166t-107 -90v-4q61 -22 108 -87t47 -165v-254q0 -30 3 -52t11 -45.5t27 -36.5t47 -13h84v-158h-170q-84 0 -143.5 55t-69.5 146q-4 46 -4 72v207 q0 50 -2 73q-12 171 -155 180z" />
<glyph unicode="|" horiz-adv-x="475" d="M139 -399v1880h195v-1880h-195z" />
<glyph unicode="}" horiz-adv-x="589" d="M23 -43h83q89 0 89 147v254q0 100 46.5 165t108.5 87v4q-60 26 -107.5 90t-47.5 166v248q0 148 -89 148h-83v155h167q99 0 158.5 -64.5t59.5 -168.5v-273q0 -92 40.5 -157t116.5 -68v-158q-46 1 -78.5 -21t-48.5 -61t-23 -80.5t-7 -90.5v-207q0 -43 -5 -72 q-10 -92 -68 -146.5t-142 -54.5h-170v158z" />
<glyph unicode="~" d="M70 512q59 109 131 162t164 53q54 -1 120.5 -31.5t127.5 -61t100 -30.5q43 0 78.5 28.5t82.5 90.5l138 -92q-61 -113 -128.5 -166t-156.5 -53q-50 0 -117.5 30t-131.5 60t-105 30q-49 0 -85.5 -23.5t-82.5 -84.5q-112 72 -135 88z" />
<glyph unicode="&#xa1;" horiz-adv-x="548" d="M156 776v234h243v-234h-243zM164 -416l16 1047h199l14 -1047h-229z" />
<glyph unicode="&#xa2;" d="M125 506q0 120 32 215.5t88.5 156t126.5 96t154 46.5v211h92v-207q189 -9 326 -143l-149 -162q-85 85 -177 94v-612q92 9 179 96l151 -160q-145 -138 -330 -147v-230h-92v232q-84 10 -154.5 44.5t-127 95t-88 156.5t-31.5 218zM362 506q0 -256 164 -297v594 q-164 -45 -164 -297z" />
<glyph unicode="&#xa3;" d="M76 573v179h137q-10 33 -33.5 94.5t-36 108t-12.5 89.5q0 76 26.5 144.5t76.5 124t133 88.5t188 33q78 0 131 -7.5t109 -30t105.5 -67.5t100.5 -117l-196 -135q-56 82 -114 112t-130 30q-63 0 -114.5 -47.5t-51.5 -131.5q0 -52 36.5 -147.5t45.5 -140.5h307v-179h-299 q-10 -218 -102 -366h604v-207h-907v176q147 194 160 397h-164z" />
<glyph unicode="&#xa4;" horiz-adv-x="1138" d="M68 287l139 137q-70 113 -70 231q0 114 70 232l-139 137q16 18 125 127l139 -139q115 71 233 71q122 0 234 -69q14 15 68 69t69 68l125 -127l-139 -137q71 -115 71 -232q0 -116 -69 -231q61 -55 137 -135l-125 -127l-137 137q-110 -72 -234 -72q-118 0 -233 72l-139 -137 zM317 655q0 -100 72.5 -172.5t173.5 -72.5q103 0 175.5 72t72.5 173q0 104 -72.5 175t-175.5 71q-102 0 -174 -72t-72 -174z" />
<glyph unicode="&#xa5;" d="M6 1425h264l166 -381q22 -50 61 -145.5t44 -107.5h8l119 299l147 335h252q-190 -396 -330 -682h226v-139h-297l-11 -35v-106h308v-139h-308v-324h-233v324h-303v139h303v106q-1 9 -5 19t-5 16h-293v139h221q-29 58 -334 682z" />
<glyph unicode="&#xa6;" horiz-adv-x="475" d="M139 -399v874h195v-874h-195zM139 602v879h195v-879h-195z" />
<glyph unicode="&#xa7;" horiz-adv-x="999" d="M80 0l129 150q60 -60 135 -91.5t148 -31.5q92 0 147 35.5t55 109.5q0 55 -51.5 92t-173.5 74q-73 22 -123.5 42.5t-98 49.5t-76 63.5t-45.5 82.5t-17 108q0 62 35 122t87 95q-98 88 -98 203q0 147 110 238.5t277 91.5q235 0 387 -121l-116 -160q-126 88 -281 88 q-68 0 -117 -36t-49 -89q0 -25 14.5 -47t34 -37t53.5 -29.5t59.5 -23t66 -20.5t59.5 -19q51 -17 89.5 -33.5t80 -45.5t68 -63t44 -85.5t17.5 -114.5q0 -64 -31.5 -127t-77.5 -96q90 -86 90 -193q0 -158 -118.5 -252t-303.5 -94q-117 0 -225 44t-184 120zM315 696 q0 -70 109 -116q39 -17 128 -46.5t128 -46.5q47 35 47 103q0 60 -53 95.5t-185 76.5q-35 9 -110 39q-64 -37 -64 -105z" />
<glyph unicode="&#xa8;" horiz-adv-x="1032" d="M188 1194v223h244v-223h-244zM598 1194v223h242v-223h-242z" />
<glyph unicode="&#xa9;" horiz-adv-x="1662" d="M115 700q0 154 55.5 289.5t151.5 231.5t229.5 151t284.5 55q202 0 366.5 -93t259 -260t94.5 -374q0 -206 -94.5 -372t-259 -259.5t-366.5 -93.5q-205 0 -369.5 92t-258 258t-93.5 375zM270 700q0 -164 74 -297t203.5 -208.5t288.5 -75.5q241 0 402 166t161 415 q0 167 -73 301t-202 208.5t-288 74.5q-241 0 -403.5 -167.5t-162.5 -416.5zM506 573v224q0 144 87.5 243t246.5 99q116 0 198 -58t117 -157l-156 -62q-18 54 -59 86.5t-100 32.5q-81 0 -124.5 -51.5t-43.5 -124.5v-236q0 -74 43.5 -128t124.5 -54q60 0 102 34t57 91l158 -66 q-36 -102 -118 -158.5t-199 -56.5q-161 0 -247.5 95.5t-86.5 246.5z" />
<glyph unicode="&#xaa;" horiz-adv-x="712" d="M49 772q0 87 64.5 143t181.5 56h176v45q0 36 -31 59t-94 23q-107 0 -164 -60q-84 88 -102 109q94 102 268 102q301 0 301 -227v-451h-178v78q-31 -42 -81 -64t-101 -22q-114 0 -177 54.5t-63 154.5zM221 782q0 -29 27 -49t84 -20q137 0 137 92q0 2 1 12t1 31h-149 q-51 0 -76 -18.5t-25 -47.5z" />
<glyph unicode="&#xab;" d="M92 467l281 410h223l-274 -410l274 -410h-223zM502 467l280 410h224l-273 -410l273 -410h-224z" />
<glyph unicode="&#xac;" d="M49 514v184h975v-571h-193v387h-782z" />
<glyph unicode="&#xad;" horiz-adv-x="851" d="M100 432v211h652v-211h-652z" />
<glyph unicode="&#xae;" horiz-adv-x="1112" d="M117 999q0 186 128.5 311.5t311.5 125.5q188 0 314 -125t126 -312q0 -184 -128.5 -308t-311.5 -124q-188 0 -314 123t-126 309zM215 999q0 -146 98 -245t244 -99t243 98.5t97 245.5q0 148 -97 247.5t-243 99.5t-244 -99.5t-98 -247.5zM391 752v497h203q65 0 109.5 -39.5 t44.5 -105.5q0 -91 -91 -137l107 -215h-109l-96 198h-72v-198h-96zM487 1040h97q31 0 50 17.5t19 46.5q0 57 -65 57h-101v-121z" />
<glyph unicode="&#xaf;" horiz-adv-x="1032" d="M223 1206v199h617v-199h-617z" />
<glyph unicode="&#xb0;" horiz-adv-x="837" d="M113 1143q0 121 89.5 207t215.5 86q127 0 216 -85.5t89 -207.5q0 -123 -89 -209t-216 -86q-126 0 -215.5 86t-89.5 209zM270 1143q0 -60 44 -103t104 -43q63 0 106 43t43 103t-43 101.5t-106 41.5q-60 0 -104 -41.5t-44 -101.5z" />
<glyph unicode="&#xb1;" d="M53 0v182h977v-182h-977zM57 627v184h387v365h195v-365h387v-184h-387v-357h-195v357h-387z" />
<glyph unicode="&#xb2;" horiz-adv-x="669" d="M45 756v143l361 395q34 37 34 76q0 36 -26.5 61t-71.5 25q-43 0 -75.5 -31.5t-39.5 -87.5l-180 25q15 114 99.5 184t195.5 70q126 0 205.5 -62.5t79.5 -175.5q0 -99 -72 -174q-16 -18 -125 -137t-137 -152h325v-159h-573z" />
<glyph unicode="&#xb3;" horiz-adv-x="677" d="M41 975l176 24q9 -46 40.5 -70t74.5 -24q52 0 84.5 32.5t32.5 82.5t-32.5 79t-90.5 29h-76v142h72q56 0 87 27t31 67t-30 67t-76 27q-36 0 -68 -25t-43 -73l-174 24q23 104 104.5 168t184.5 64q144 0 216.5 -70t72.5 -176q0 -48 -24.5 -95t-76.5 -75q57 -28 84 -78.5 t27 -101.5q0 -119 -84.5 -194.5t-220.5 -75.5q-66 0 -123 20.5t-104.5 73t-63.5 131.5z" />
<glyph unicode="&#xb4;" horiz-adv-x="1032" d="M385 1165l162 389l219 -69l-242 -371z" />
<glyph unicode="&#xb6;" horiz-adv-x="1153" d="M72 1034q0 76 23.5 148t68 130.5t117.5 94t163 35.5q56 0 309 1t312 1v-156h-88v-1452h-178v1452h-158v-1452h-182v813h-66q-100 0 -175 56.5t-110.5 142.5t-35.5 186z" />
<glyph unicode="&#xb7;" horiz-adv-x="555" d="M137 420v282h279v-282h-279z" />
<glyph unicode="&#xb8;" horiz-adv-x="915" d="M268 -387l43 106q70 -32 148 -32q38 0 64 16t26 51q0 32 -24.5 49t-63.5 17q-15 0 -35 -4l-61 41l73 233q21 0 60.5 -1t60.5 -1q-48 -146 -53 -164q103 -8 152 -60.5t49 -117.5q0 -71 -61 -126.5t-173 -55.5q-117 0 -205 49z" />
<glyph unicode="&#xb9;" horiz-adv-x="569" d="M100 1335v181l148 94h160v-854h-183v661z" />
<glyph unicode="&#xba;" horiz-adv-x="729" d="M53 907q4 124 37 187q36 74 111.5 114.5t173.5 40.5q80 0 145.5 -29t102.5 -85q53 -73 53 -220q0 -143 -51 -223q-39 -63 -109.5 -97t-157.5 -34q-170 0 -247 109q-58 83 -58 237zM236 905q0 -80 20 -119q28 -67 106 -67q86 0 117 86q13 41 13 110q0 76 -17 111 q-13 33 -41.5 50.5t-64.5 17.5q-79 0 -111 -68q-22 -43 -22 -121z" />
<glyph unicode="&#xbb;" d="M94 57l271 410l-271 410h223l279 -410l-279 -410h-223zM504 57l272 410l-272 410h223l279 -410l-279 -410h-223z" />
<glyph unicode="&#xbc;" horiz-adv-x="1761" d="M190 1151v180l148 94h160v-854h-183v662zM299 -35l870 1495h185l-873 -1495h-182zM928 121v133l317 600h201l-309 -578h180v195h180v-195h74v-155h-74v-121h-180v121h-389z" />
<glyph unicode="&#xbd;" horiz-adv-x="1761" d="M160 1151v180l147 94h160v-854h-182v662zM262 -35l871 1495h184l-873 -1495h-182zM1022 0v143l360 396v-2q35 41 35 77t-27.5 61t-74.5 25q-43 0 -73.5 -30.5t-39.5 -87.5l-178 24q15 114 98 183t193 69q127 0 207 -61t80 -174q0 -44 -19 -91.5t-51 -82.5l-264 -289h327 v-160h-573z" />
<glyph unicode="&#xbe;" horiz-adv-x="1761" d="M92 791l176 24q9 -46 40.5 -70t74.5 -24q52 0 84.5 32.5t32.5 82.5t-32.5 79t-90.5 29h-76v141h72q56 0 87.5 27.5t31.5 67.5t-30.5 67t-76.5 27q-36 0 -68 -25t-43 -73l-174 24q23 104 104.5 168t184.5 64q144 0 216.5 -70t72.5 -176q0 -48 -24 -95t-76 -75 q57 -28 83.5 -78.5t26.5 -101.5q0 -119 -84.5 -195t-220.5 -76q-48 0 -93 12.5t-86 38t-70.5 70.5t-41.5 105zM397 -35l871 1495h184l-872 -1495h-183zM1024 121v133l317 600h201l-309 -578h180v195h180v-195h74v-155h-74v-121h-180v121h-389z" />
<glyph unicode="&#xbf;" horiz-adv-x="966" d="M55 -35q1 53 13.5 98t42 88.5t50 68t63.5 70.5q9 10 14 15q63 67 96 121.5t33 120.5v74h239v-80q0 -99 -44.5 -181t-133.5 -186q-35 -38 -55.5 -64t-40 -66t-19.5 -73q0 -66 48.5 -119t138.5 -53t144 66t61 153q40 -6 118.5 -16t118.5 -16q-16 -99 -60.5 -178.5 t-107 -130t-138 -77t-157.5 -26.5q-193 0 -308.5 110t-115.5 281zM367 776v232h241v-232h-241z" />
<glyph unicode="&#xc0;" horiz-adv-x="1288" d="M4 0l539 1425h200l539 -1425h-262l-113 315h-528l-115 -315h-260zM260 1704l152 172l338 -256l-97 -115zM451 526h383l-95 289l-94 293h-6l-92 -287z" />
<glyph unicode="&#xc1;" horiz-adv-x="1288" d="M4 0l539 1425h200l539 -1425h-262l-113 315h-528l-115 -315h-260zM451 526h383l-95 289l-94 293h-6l-92 -287zM481 1620l338 256l152 -172l-393 -199z" />
<glyph unicode="&#xc2;" horiz-adv-x="1288" d="M4 0l539 1425h200l539 -1425h-262l-113 315h-528l-115 -315h-260zM262 1599l305 254h156l301 -251l-82 -101l-301 168l-301 -168zM451 526h383l-95 289l-94 293h-6l-92 -287z" />
<glyph unicode="&#xc3;" horiz-adv-x="1288" d="M4 0l539 1425h200l539 -1425h-262l-113 315h-528l-115 -315h-260zM250 1585q100 207 248 207q43 0 97 -24.5t101 -49t74 -24.5q65 0 131 96l123 -72q-49 -104 -106 -153t-127 -49q-55 0 -151 47t-132 47t-68.5 -20.5t-72.5 -71.5zM451 526h383l-95 289l-94 293h-6 l-92 -287z" />
<glyph unicode="&#xc4;" horiz-adv-x="1288" d="M4 0l539 1425h200l539 -1425h-262l-113 315h-528l-115 -315h-260zM315 1550v228h248v-228h-248zM451 526h383l-95 289l-94 293h-6l-92 -287zM721 1550v228h246v-228h-246z" />
<glyph unicode="&#xc5;" horiz-adv-x="1288" d="M4 0l539 1425h200l539 -1425h-262l-113 315h-528l-115 -315h-260zM414 1681q0 92 67 157t162 65q94 0 160.5 -65t66.5 -157q0 -91 -66.5 -155t-160.5 -64q-95 0 -162 64t-67 155zM451 526h383l-95 289l-94 293h-6l-92 -287zM545 1681q0 -39 28.5 -66.5t69.5 -27.5 q40 0 68 28t28 66q0 40 -28 67.5t-68 27.5q-41 0 -69.5 -27.5t-28.5 -67.5z" />
<glyph unicode="&#xc6;" horiz-adv-x="2117" d="M53 0l887 1425h1073v-225h-706v-375h602v-215h-602v-387h706v-223h-954v360h-506q-42 -70 -219 -360h-281zM678 575h381v623h-4q-62 -104 -188 -311.5t-189 -311.5z" />
<glyph unicode="&#xc7;" horiz-adv-x="1171" d="M98 530v365q0 109 33.5 205.5t97.5 172t167.5 119.5t232.5 44q183 0 312.5 -89.5t184.5 -242.5l-233 -92q-27 86 -95.5 137t-168.5 51q-69 0 -124 -25t-88.5 -66.5t-51 -93.5t-17.5 -110v-379q0 -126 73 -215.5t208 -89.5q99 0 168 53.5t96 143.5l235 -99 q-53 -152 -177 -238.5t-300 -92.5l-18 -64q103 -8 152 -60.5t49 -117.5q0 -71 -61 -126.5t-173 -55.5q-117 0 -205 49l43 106q70 -32 148 -32q38 0 64 16t26 51q0 32 -24.5 49t-63.5 17q-15 0 -35 -4l-61 41l43 137q-143 19 -243 95t-147 188t-47 253z" />
<glyph unicode="&#xc8;" horiz-adv-x="1155" d="M150 0v1425h954v-225h-707v-373h602v-217h-602v-385h707v-225h-954zM242 1704l151 172l338 -256l-96 -115z" />
<glyph unicode="&#xc9;" horiz-adv-x="1155" d="M150 0v1425h954v-225h-707v-373h602v-217h-602v-385h707v-225h-954zM440 1620l338 256l152 -172l-393 -199z" />
<glyph unicode="&#xca;" horiz-adv-x="1155" d="M150 0v1425h954v-225h-707v-373h602v-217h-602v-385h707v-225h-954zM233 1599l306 254h155l301 -251l-82 -101l-301 168l-301 -168z" />
<glyph unicode="&#xcb;" horiz-adv-x="1155" d="M150 0v1425h954v-225h-707v-373h602v-217h-602v-385h707v-225h-954zM291 1542v223h244v-223h-244zM700 1542v223h242v-223h-242z" />
<glyph unicode="&#xcc;" horiz-adv-x="548" d="M-135 1704l151 172l338 -256l-96 -115zM152 0v1425h249v-1425h-249z" />
<glyph unicode="&#xcd;" horiz-adv-x="548" d="M150 1620l337 256l152 -172l-393 -199zM152 0v1425h249v-1425h-249z" />
<glyph unicode="&#xce;" horiz-adv-x="548" d="M-100 1599l305 254h155l302 -251l-82 -101l-301 168l-302 -168zM152 0v1425h249v-1425h-249z" />
<glyph unicode="&#xcf;" horiz-adv-x="548" d="M-51 1542v223h244v-223h-244zM152 0v1425h249v-1425h-249zM358 1542v223h242v-223h-242z" />
<glyph unicode="&#xd0;" horiz-adv-x="1306" d="M12 627v174h138v624h518q167 0 293.5 -65t191.5 -199q35 -71 45 -168.5t10 -255.5q0 -174 -9.5 -276t-41.5 -178q-124 -283 -524 -283h-483v627h-138zM397 225h244q172 0 246 91.5t74 263.5v266q0 186 -81.5 270t-242.5 84h-240v-399h199v-174h-199v-402z" />
<glyph unicode="&#xd1;" horiz-adv-x="1417" d="M150 0v1425h229l399 -606l242 -385l4 4v987h248v-1425h-230l-440 664l-199 325l-6 -2v-987h-247zM313 1587q100 207 248 207q43 0 97 -24.5t101.5 -49t74.5 -24.5q65 0 131 96l122 -72q-49 -104 -106 -153t-127 -49q-55 0 -151 47t-132 47t-68.5 -20.5t-72.5 -71.5z" />
<glyph unicode="&#xd2;" horiz-adv-x="1249" d="M92 530v365q0 109 33.5 205.5t97.5 172t167.5 119.5t232.5 44q242 0 387 -152t145 -389v-365q0 -249 -144.5 -395.5t-387.5 -146.5q-130 0 -232.5 43.5t-167 118.5t-98 172t-33.5 208zM289 1704l151 172l338 -256l-96 -115zM342 524q0 -126 73 -215.5t208 -89.5 q128 0 204 86.5t76 218.5v383q0 126 -76 210.5t-204 84.5q-69 0 -124 -25t-88.5 -66.5t-51 -93.5t-17.5 -110v-383z" />
<glyph unicode="&#xd3;" horiz-adv-x="1249" d="M92 530v365q0 109 33.5 205.5t97.5 172t167.5 119.5t232.5 44q242 0 387 -152t145 -389v-365q0 -249 -144.5 -395.5t-387.5 -146.5q-130 0 -232.5 43.5t-167 118.5t-98 172t-33.5 208zM342 524q0 -126 73 -215.5t208 -89.5q128 0 204 86.5t76 218.5v383q0 126 -76 210.5 t-204 84.5q-69 0 -124 -25t-88.5 -66.5t-51 -93.5t-17.5 -110v-383zM498 1620l338 256l151 -172l-393 -199z" />
<glyph unicode="&#xd4;" horiz-adv-x="1249" d="M92 530v365q0 109 33.5 205.5t97.5 172t167.5 119.5t232.5 44q242 0 387 -152t145 -389v-365q0 -249 -144.5 -395.5t-387.5 -146.5q-130 0 -232.5 43.5t-167 118.5t-98 172t-33.5 208zM244 1599l305 254h156l301 -251l-82 -101l-301 168l-301 -168zM342 524 q0 -126 73 -215.5t208 -89.5q128 0 204 86.5t76 218.5v383q0 126 -76 210.5t-204 84.5q-69 0 -124 -25t-88.5 -66.5t-51 -93.5t-17.5 -110v-383z" />
<glyph unicode="&#xd5;" horiz-adv-x="1249" d="M92 530v365q0 109 33.5 205.5t97.5 172t167.5 119.5t232.5 44q242 0 387 -152t145 -389v-365q0 -249 -144.5 -395.5t-387.5 -146.5q-130 0 -232.5 43.5t-167 118.5t-98 172t-33.5 208zM242 1585q100 207 247 207q43 0 97 -24.5t101.5 -49t74.5 -24.5q65 0 131 96l123 -72 q-95 -202 -234 -202q-55 0 -150.5 47t-131.5 47t-69 -20.5t-73 -71.5zM342 524q0 -126 73 -215.5t208 -89.5q128 0 204 86.5t76 218.5v383q0 126 -76 210.5t-204 84.5q-69 0 -124 -25t-88.5 -66.5t-51 -93.5t-17.5 -110v-383z" />
<glyph unicode="&#xd6;" horiz-adv-x="1249" d="M92 530v365q0 109 33.5 205.5t97.5 172t167.5 119.5t232.5 44q242 0 387 -152t145 -389v-365q0 -249 -144.5 -395.5t-387.5 -146.5q-130 0 -232.5 43.5t-167 118.5t-98 172t-33.5 208zM297 1550v228h248v-228h-248zM342 524q0 -126 73 -215.5t208 -89.5q128 0 204 86.5 t76 218.5v383q0 126 -76 210.5t-204 84.5q-69 0 -124 -25t-88.5 -66.5t-51 -93.5t-17.5 -110v-383zM702 1550v228h246v-228h-246z" />
<glyph unicode="&#xd7;" d="M76 926l131 129l336 -336l325 328l138 -138l-328 -325l338 -338l-129 -131l-338 338l-330 -330l-137 135l330 330z" />
<glyph unicode="&#xd8;" horiz-adv-x="1249" d="M80 59l102 146q-90 136 -90 325v365q0 109 33.5 205.5t97.5 172t167.5 119.5t232.5 44q205 0 346 -115l84 117l96 -70l-96 -135q102 -142 102 -338v-365q0 -249 -144.5 -395.5t-387.5 -146.5q-225 0 -365 127l-86 -123zM342 524q0 -46 8 -82l475 676q-77 84 -202 84 q-69 0 -124 -25t-88.5 -66.5t-51 -93.5t-17.5 -110v-383zM406 319q76 -100 217 -100q128 0 204 86.5t76 218.5v383q0 54 -14 97z" />
<glyph unicode="&#xd9;" horiz-adv-x="1306" d="M123 516v909h246v-890q0 -134 78 -224t208 -90q129 0 205 79t76 224v901h250v-919q0 -232 -150 -374t-383 -142q-239 0 -384.5 148.5t-145.5 377.5zM279 1704l151 172l338 -256l-96 -115z" />
<glyph unicode="&#xda;" horiz-adv-x="1306" d="M123 516v909h246v-890q0 -134 78 -224t208 -90q129 0 205 79t76 224v901h250v-919q0 -232 -150 -374t-383 -142q-239 0 -384.5 148.5t-145.5 377.5zM500 1620l338 256l151 -172l-393 -199z" />
<glyph unicode="&#xdb;" horiz-adv-x="1306" d="M123 516v909h246v-890q0 -134 78 -224t208 -90q129 0 205 79t76 224v901h250v-919q0 -232 -150 -374t-383 -142q-239 0 -384.5 148.5t-145.5 377.5zM272 1599l306 254h155l301 -251l-82 -101l-301 168l-301 -168z" />
<glyph unicode="&#xdc;" horiz-adv-x="1306" d="M123 516v909h246v-890q0 -134 78 -224t208 -90q129 0 205 79t76 224v901h250v-919q0 -232 -150 -374t-383 -142q-239 0 -384.5 148.5t-145.5 377.5zM332 1550v228h248v-228h-248zM737 1550v228h246v-228h-246z" />
<glyph unicode="&#xdd;" horiz-adv-x="1140" d="M8 1425h264l172 -352q43 -90 125 -274h4l127 280l170 346h263q-219 -419 -445 -839v-586h-235v586q-82 153 -232 436.5t-213 402.5zM432 1620l338 256l152 -172l-394 -199z" />
<glyph unicode="&#xde;" horiz-adv-x="1210" d="M147 1423h250v-256h297q102 0 191 -28.5t157.5 -83t108 -141t39.5 -193.5q0 -85 -34.5 -163.5t-95 -138t-148.5 -95t-189 -35.5h-326v-289h-247zM397 514h314q102 0 164.5 62.5t62.5 150.5q0 106 -63.5 160.5t-172.5 54.5h-305v-428z" />
<glyph unicode="&#xdf;" horiz-adv-x="1110" d="M127 0v1079q0 191 116 300.5t306 109.5q80 0 147 -21.5t113 -57t78 -83t46.5 -99t14.5 -104.5q0 -78 -41.5 -161.5t-111.5 -116.5v-2q59 -17 102.5 -56.5t67 -91.5t34.5 -105.5t11 -107.5q0 -70 -12 -135t-43 -130t-79 -112.5t-126 -77.5t-177 -30h-69v192h59 q92 0 148.5 80t56.5 207q0 43 -9 85t-28 83t-56.5 66.5t-88.5 25.5h-45v189h43q40 0 70 19t45 48t21.5 56t6.5 51q0 72 -46 132t-132 60q-98 0 -144.5 -61.5t-46.5 -145.5v-1085h-231z" />
<glyph unicode="&#xe0;" horiz-adv-x="1021" d="M72 295q0 130 91 217.5t253 87.5h274v74q0 145 -201 145q-154 0 -241 -84l-123 156q133 133 377 133q420 0 420 -336v-688h-232v90q-2 2 -4 2q-38 -51 -109.5 -76.5t-154.5 -25.5q-163 0 -256.5 79.5t-93.5 225.5zM254 1481l221 73l168 -380l-137 -60zM291 311 q0 -52 43.5 -88.5t136.5 -36.5q56 0 100.5 12t77.5 45t39 85q2 16 2 96h-235q-83 0 -123.5 -31t-40.5 -82z" />
<glyph unicode="&#xe1;" horiz-adv-x="1021" d="M72 295q0 130 91 217.5t253 87.5h274v74q0 145 -201 145q-154 0 -241 -84l-123 156q133 133 377 133q420 0 420 -336v-688h-232v90q-2 2 -4 2q-38 -51 -109.5 -76.5t-154.5 -25.5q-163 0 -256.5 79.5t-93.5 225.5zM291 311q0 -52 43.5 -88.5t136.5 -36.5q56 0 100.5 12 t77.5 45t39 85q2 16 2 96h-235q-83 0 -123.5 -31t-40.5 -82zM436 1165l162 389l219 -69l-242 -371z" />
<glyph unicode="&#xe2;" horiz-adv-x="1021" d="M72 295q0 130 91 217.5t253 87.5h274v74q0 145 -201 145q-154 0 -241 -84l-123 156q133 133 377 133q420 0 420 -336v-688h-232v90q-2 2 -4 2q-38 -51 -109.5 -76.5t-154.5 -25.5q-163 0 -256.5 79.5t-93.5 225.5zM127 1188l305 315h160l299 -313l-98 -90l-285 215 q-20 -15 -139.5 -105.5t-147.5 -109.5zM291 311q0 -52 43.5 -88.5t136.5 -36.5q56 0 100.5 12t77.5 45t39 85q2 16 2 96h-235q-83 0 -123.5 -31t-40.5 -82z" />
<glyph unicode="&#xe3;" horiz-adv-x="1021" d="M72 295q0 130 91 217.5t253 87.5h274v74q0 145 -201 145q-154 0 -241 -84l-123 156q133 133 377 133q420 0 420 -336v-688h-232v90q-2 2 -4 2q-38 -51 -109.5 -76.5t-154.5 -25.5q-163 0 -256.5 79.5t-93.5 225.5zM135 1237q100 207 248 207q43 0 97 -24.5t101 -49 t74 -24.5q65 0 131 96l123 -72q-95 -203 -233 -203q-55 0 -151 47.5t-132 47.5t-68.5 -21t-72.5 -72zM291 311q0 -52 43.5 -88.5t136.5 -36.5q56 0 100.5 12t77.5 45t39 85q2 16 2 96h-235q-83 0 -123.5 -31t-40.5 -82z" />
<glyph unicode="&#xe4;" horiz-adv-x="1021" d="M72 295q0 130 91 217.5t253 87.5h274v74q0 145 -201 145q-154 0 -241 -84l-123 156q133 133 377 133q420 0 420 -336v-688h-232v90q-2 2 -4 2q-38 -51 -109.5 -76.5t-154.5 -25.5q-163 0 -256.5 79.5t-93.5 225.5zM190 1194v223h244v-223h-244zM291 311q0 -52 43.5 -88.5 t136.5 -36.5q56 0 100.5 12t77.5 45t39 85q2 16 2 96h-235q-83 0 -123.5 -31t-40.5 -82zM600 1194v223h242v-223h-242z" />
<glyph unicode="&#xe5;" horiz-adv-x="1021" d="M72 295q0 130 91 217.5t253 87.5h274v74q0 145 -201 145q-154 0 -241 -84l-123 156q133 133 377 133q420 0 420 -336v-688h-232v90q-2 2 -4 2q-38 -51 -109.5 -76.5t-154.5 -25.5q-163 0 -256.5 79.5t-93.5 225.5zM291 311q0 -52 43.5 -88.5t136.5 -36.5q56 0 100.5 12 t77.5 45t39 85q2 16 2 96h-235q-83 0 -123.5 -31t-40.5 -82zM305 1317q0 92 67.5 156.5t162.5 64.5q94 0 160.5 -64.5t66.5 -156.5q0 -91 -66.5 -155t-160.5 -64q-95 0 -162.5 64t-67.5 155zM436 1317q0 -38 29 -66t70 -28q40 0 68 28t28 66q0 40 -28 67t-68 27 q-41 0 -70 -27t-29 -67z" />
<glyph unicode="&#xe6;" horiz-adv-x="1671" d="M82 295q0 130 91 217.5t253 87.5h274v74q0 66 -47 108.5t-157 42.5q-164 0 -246 -88l-119 150q121 137 367 137q256 0 354 -117q109 117 289 117q144 0 246 -68.5t150 -183t48 -262.5v-70h-645q3 -76 35 -139q61 -102 199 -102q50 0 109 22.5t110 69.5l143 -160 q-150 -141 -369 -141q-240 0 -358 145q-119 -145 -367 -145q-164 0 -262 80t-98 225zM301 311q0 -52 43.5 -88.5t136.5 -36.5q219 0 219 193v47h-235q-83 0 -123.5 -32t-40.5 -83zM944 604h402q-6 101 -61 156t-138 55t-138.5 -56t-64.5 -155z" />
<glyph unicode="&#xe7;" horiz-adv-x="915" d="M57 506q0 133 39.5 235.5t107 162.5t150 90t176.5 30q204 0 347 -143l-150 -162q-91 94 -192 94q-240 0 -240 -307q0 -305 237 -305q101 0 197 96l152 -160q-152 -146 -353 -149l-18 -64q103 -8 152 -60.5t49 -117.5q0 -71 -61 -126.5t-173 -55.5q-117 0 -205 49l43 106 q70 -32 148 -32q38 0 64 16t26 51q0 32 -24.5 49t-63.5 17q-15 0 -35 -4l-61 41l45 141q-160 31 -258.5 158.5t-98.5 349.5z" />
<glyph unicode="&#xe8;" horiz-adv-x="1038" d="M76 504q0 113 26 204t69 149t101.5 97t119 55.5t126.5 16.5q203 0 319.5 -131t116.5 -354v-101h-639q0 -103 54.5 -173t160.5 -70q52 0 120 24t120 72q25 -27 68 -80.5t67 -81.5q-155 -143 -383 -143q-69 0 -129.5 13.5t-120 49.5t-102 92t-68.5 148.5t-26 212.5z M258 1481l221 73l168 -380l-137 -60zM319 604h390q-6 100 -59.5 155.5t-133.5 55.5q-81 0 -134.5 -56.5t-62.5 -154.5z" />
<glyph unicode="&#xe9;" horiz-adv-x="1038" d="M76 504q0 113 26 204t69 149t101.5 97t119 55.5t126.5 16.5q203 0 319.5 -131t116.5 -354v-101h-639q0 -103 54.5 -173t160.5 -70q52 0 120 24t120 72q25 -27 68 -80.5t67 -81.5q-155 -143 -383 -143q-69 0 -129.5 13.5t-120 49.5t-102 92t-68.5 148.5t-26 212.5z M319 604h390q-6 100 -59.5 155.5t-133.5 55.5q-81 0 -134.5 -56.5t-62.5 -154.5zM406 1165l161 389l219 -69l-241 -371z" />
<glyph unicode="&#xea;" horiz-adv-x="1038" d="M76 504q0 113 26 204t69 149t101.5 97t119 55.5t126.5 16.5q203 0 319.5 -131t116.5 -354v-101h-639q0 -103 54.5 -173t160.5 -70q52 0 120 24t120 72q25 -27 68 -80.5t67 -81.5q-155 -143 -383 -143q-69 0 -129.5 13.5t-120 49.5t-102 92t-68.5 148.5t-26 212.5z M147 1188l306 315h159l299 -313l-98 -90l-285 215q-21 -15 -139.5 -105.5t-146.5 -109.5zM319 604h390q-6 100 -59.5 155.5t-133.5 55.5q-81 0 -134.5 -56.5t-62.5 -154.5z" />
<glyph unicode="&#xeb;" horiz-adv-x="1038" d="M76 504q0 113 26 204t69 149t101.5 97t119 55.5t126.5 16.5q203 0 319.5 -131t116.5 -354v-101h-639q0 -103 54.5 -173t160.5 -70q52 0 120 24t120 72q25 -27 68 -80.5t67 -81.5q-155 -143 -383 -143q-69 0 -129.5 13.5t-120 49.5t-102 92t-68.5 148.5t-26 212.5z M199 1194v223h243v-223h-243zM319 604h390q-6 100 -59.5 155.5t-133.5 55.5q-81 0 -134.5 -56.5t-62.5 -154.5zM608 1194v223h242v-223h-242z" />
<glyph unicode="&#xec;" horiz-adv-x="481" d="M-63 1481l221 73l168 -380l-138 -60zM123 0v1014h235v-1014h-235z" />
<glyph unicode="&#xed;" horiz-adv-x="481" d="M123 0v1014h235v-1014h-235zM147 1165l162 389l219 -69l-241 -371z" />
<glyph unicode="&#xee;" horiz-adv-x="681" d="M-41 1188l305 315h160l299 -313l-98 -90l-285 215q-20 -15 -139.5 -105.5t-147.5 -109.5zM219 0v1014h236v-1014h-236z" />
<glyph unicode="&#xef;" horiz-adv-x="569" d="M-41 1194v223h244v-223h-244zM168 0v1014h235v-1014h-235zM369 1194v223h241v-223h-241z" />
<glyph unicode="&#xf0;" horiz-adv-x="1052" d="M68 449q-5 85 11 168.5t48 144.5q112 213 377 213q70 -2 144.5 -36.5t109.5 -92.5l8 2q-2 83 -20 163.5t-56 127.5q-108 -85 -112 -88l-68 90l104 82q-92 82 -270 108l35 182q263 -21 403 -161l142 112l71 -84l-133 -110q41 -58 68 -128.5t39 -156.5t16 -162.5t4 -185.5 q0 -332 -143 -502q-130 -149 -357 -149q-113 0 -202.5 45.5t-141.5 120.5q-74 113 -77 297zM303 453q0 -85 27 -146q50 -110 174 -110q53 0 96.5 23.5t69.5 66.5q43 61 43 209q0 74 -21 135q-21 65 -69 99t-115 34q-116 0 -172 -105q-31 -63 -33 -206z" />
<glyph unicode="&#xf1;" horiz-adv-x="1083" d="M119 0v1016h231v-107h4q48 54 120.5 84.5t143.5 30.5q159 0 252 -92t93 -266v-666h-232v602q0 205 -186 205q-85 0 -140 -55t-55 -150v-602h-231zM127 1237q100 207 248 207q43 0 97 -24.5t101 -49t74 -24.5q65 0 131 96l123 -72q-95 -203 -233 -203q-55 0 -151 47.5 t-132 47.5t-68.5 -21t-72.5 -72z" />
<glyph unicode="&#xf2;" horiz-adv-x="1054" d="M86 506q0 182 51 287q52 112 158.5 172.5t245.5 60.5q114 0 205 -44t147 -126q77 -121 74 -334q0 -222 -70 -344q-57 -93 -157.5 -142.5t-223.5 -49.5q-242 0 -350 159q-83 125 -80 361zM270 1481l222 73l167 -380l-137 -60zM319 504q0 -134 31 -195q24 -53 68.5 -82.5 t103.5 -29.5q68 0 118 36.5t73 108.5q18 58 18 180q0 119 -26 178q-23 58 -68.5 87.5t-104.5 29.5t-106 -30.5t-72 -84.5q-32 -67 -35 -198z" />
<glyph unicode="&#xf3;" horiz-adv-x="1054" d="M86 506q0 182 51 287q52 112 158.5 172.5t245.5 60.5q114 0 205 -44t147 -126q77 -121 74 -334q0 -222 -70 -344q-57 -93 -157.5 -142.5t-223.5 -49.5q-242 0 -350 159q-83 125 -80 361zM319 504q0 -134 31 -195q24 -53 68.5 -82.5t103.5 -29.5q68 0 118 36.5t73 108.5 q18 58 18 180q0 119 -26 178q-23 58 -68.5 87.5t-104.5 29.5t-106 -30.5t-72 -84.5q-32 -67 -35 -198zM444 1165l162 389l219 -69l-241 -371z" />
<glyph unicode="&#xf4;" horiz-adv-x="1054" d="M86 506q0 182 51 287q52 112 158.5 172.5t245.5 60.5q114 0 205 -44t147 -126q77 -121 74 -334q0 -222 -70 -344q-57 -93 -157.5 -142.5t-223.5 -49.5q-242 0 -350 159q-83 125 -80 361zM147 1188l306 315h159l299 -313l-98 -90l-285 215q-21 -15 -139.5 -105.5 t-146.5 -109.5zM319 504q0 -134 31 -195q24 -53 68.5 -82.5t103.5 -29.5q68 0 118 36.5t73 108.5q18 58 18 180q0 119 -26 178q-23 58 -68.5 87.5t-104.5 29.5t-106 -30.5t-72 -84.5q-32 -67 -35 -198z" />
<glyph unicode="&#xf5;" horiz-adv-x="1054" d="M86 506q0 182 51 287q52 112 158.5 172.5t245.5 60.5q114 0 205 -44t147 -126q77 -121 74 -334q0 -222 -70 -344q-57 -93 -157.5 -142.5t-223.5 -49.5q-242 0 -350 159q-83 125 -80 361zM150 1237q100 207 247 207q43 0 97 -24.5t101.5 -49t74.5 -24.5q65 0 131 96 l123 -72q-95 -203 -234 -203q-55 0 -150.5 47.5t-131.5 47.5t-69 -21t-73 -72zM319 504q0 -134 31 -195q24 -53 68.5 -82.5t103.5 -29.5q68 0 118 36.5t73 108.5q18 58 18 180q0 119 -26 178q-23 58 -68.5 87.5t-104.5 29.5t-106 -30.5t-72 -84.5q-32 -67 -35 -198z" />
<glyph unicode="&#xf6;" horiz-adv-x="1054" d="M86 506q0 182 51 287q52 112 158.5 172.5t245.5 60.5q114 0 205 -44t147 -126q77 -121 74 -334q0 -222 -70 -344q-57 -93 -157.5 -142.5t-223.5 -49.5q-242 0 -350 159q-83 125 -80 361zM199 1194v223h243v-223h-243zM319 504q0 -134 31 -195q24 -53 68.5 -82.5 t103.5 -29.5q68 0 118 36.5t73 108.5q18 58 18 180q0 119 -26 178q-23 58 -68.5 87.5t-104.5 29.5t-106 -30.5t-72 -84.5q-32 -67 -35 -198zM608 1194v223h242v-223h-242z" />
<glyph unicode="&#xf7;" d="M47 514v184h989v-184h-989zM391 201q0 60 44.5 101.5t107.5 41.5q62 0 105.5 -41.5t43.5 -101.5t-43.5 -102t-105.5 -42q-63 0 -107.5 42t-44.5 102zM391 1001q0 60 44.5 103t107.5 43q61 0 105 -43t44 -103q0 -59 -44 -101t-105 -42q-63 0 -107.5 42t-44.5 101z" />
<glyph unicode="&#xf8;" horiz-adv-x="1054" d="M86 506q0 182 51 287q52 112 158.5 172.5t245.5 60.5q159 0 272 -86l86 111l74 -58l-94 -119q6 -6 14 -18q77 -121 74 -334q0 -222 -70 -344q-57 -93 -157.5 -142.5t-223.5 -49.5q-169 0 -276 82l-80 -101l-70 56l86 108q-8 8 -10 14q-83 125 -80 361zM319 504 q0 -113 19 -166l332 422q-51 57 -138 57q-59 0 -106 -30.5t-72 -84.5q-32 -67 -35 -198zM385 252q55 -55 137 -55q68 0 118 36.5t73 108.5q18 58 18 180q0 86 -16 148z" />
<glyph unicode="&#xf9;" horiz-adv-x="1091" d="M121 348v666h229v-604q0 -106 44.5 -156.5t144.5 -50.5q84 0 139 56t55 151v604h232v-1014h-232v100h-6q-44 -54 -115 -83t-143 -29q-163 0 -255.5 90t-92.5 270zM270 1481l222 73l167 -380l-137 -60z" />
<glyph unicode="&#xfa;" horiz-adv-x="1091" d="M121 348v666h229v-604q0 -106 44.5 -156.5t144.5 -50.5q84 0 139 56t55 151v604h232v-1014h-232v100h-6q-44 -54 -115 -83t-143 -29q-163 0 -255.5 90t-92.5 270zM440 1165l162 389l219 -69l-241 -371z" />
<glyph unicode="&#xfb;" horiz-adv-x="1091" d="M121 348v666h229v-604q0 -106 44.5 -156.5t144.5 -50.5q84 0 139 56t55 151v604h232v-1014h-232v100h-6q-44 -54 -115 -83t-143 -29q-163 0 -255.5 90t-92.5 270zM158 1188l305 315h160l299 -313l-99 -90l-284 215q-20 -15 -139.5 -105.5t-147.5 -109.5z" />
<glyph unicode="&#xfc;" horiz-adv-x="1091" d="M121 348v666h229v-604q0 -106 44.5 -156.5t144.5 -50.5q84 0 139 56t55 151v604h232v-1014h-232v100h-6q-44 -54 -115 -83t-143 -29q-163 0 -255.5 90t-92.5 270zM201 1194v223h243v-223h-243zM610 1194v223h242v-223h-242z" />
<glyph unicode="&#xfd;" horiz-adv-x="962" d="M0 1014h250l131 -373l100 -319h8l101 315l129 377h244l-447 -1219q-75 -205 -295 -205h-86v195h64q42 0 74.5 30t48.5 76l51 160zM401 1165l162 389l219 -69l-241 -371z" />
<glyph unicode="&#xfe;" horiz-adv-x="1073" d="M123 -410v1868h229v-534l6 -2q91 102 238 102q377 0 377 -524q0 -77 -9.5 -144.5t-37 -137t-70.5 -119t-115 -80.5t-166 -31q-123 0 -219 96h-4v-494h-229zM352 504q0 -299 191 -299q50 0 86 19t55.5 46.5t31 70.5t14.5 79.5t3 83.5q0 39 -2 68.5t-8 67.5t-19 65 t-33 51.5t-53 37.5t-75 13q-50 0 -86.5 -20.5t-56 -49.5t-31 -73t-14.5 -79.5t-3 -80.5z" />
<glyph unicode="&#xff;" horiz-adv-x="962" d="M0 1014h250l131 -373l100 -319h8l101 315l129 377h244l-447 -1219q-75 -205 -295 -205h-86v195h64q42 0 74.5 30t48.5 76l51 160zM158 1194v223h243v-223h-243zM567 1194v223h242v-223h-242z" />
<glyph unicode="&#x152;" horiz-adv-x="1734" d="M84 500v395q0 109 33.5 205.5t97 172t166 119.5t231.5 44q47 0 115 -11h954v-225h-706v-375h602v-215h-602v-387h706v-223h-940q-61 -12 -129 -12q-528 0 -528 512zM332 524q0 -149 70.5 -227t209.5 -78q61 0 115 23v938q-55 22 -115 22q-63 0 -113 -20t-80.5 -53 t-50.5 -78.5t-28 -92.5t-8 -100v-334z" />
<glyph unicode="&#x153;" horiz-adv-x="1710" d="M80 489q0 193 49 302q51 112 155.5 172.5t243.5 60.5q103 0 189 -39.5t135 -116.5v-2q104 158 319 158q203 0 323 -131.5t120 -351.5v-101h-647q4 -118 62.5 -180.5t162.5 -62.5q51 0 114.5 23.5t114.5 70.5l144 -160q-153 -143 -375 -143q-103 0 -194 39t-150 123 q-53 -80 -142.5 -121t-191.5 -41q-241 0 -348 157q-84 122 -84 344zM311 502q0 -132 31 -195q52 -110 176 -110q68 0 119 37t74 108q16 52 16 164q0 125 -29 194q-24 58 -70.5 87.5t-105.5 29.5q-61 0 -108 -30.5t-72 -84.5q-31 -66 -31 -200zM973 604h397q-6 101 -60 157 t-136 56t-138 -57t-63 -156z" />
<glyph unicode="&#x178;" horiz-adv-x="1140" d="M8 1425h264l172 -352q43 -90 125 -274h4l127 280l170 346h263q-219 -419 -445 -839v-586h-235v586q-82 153 -232 436.5t-213 402.5zM248 1550v228h248v-228h-248zM653 1550v228h246v-228h-246z" />
<glyph unicode="&#x2c6;" horiz-adv-x="1032" d="M137 1188l305 315h160l299 -313l-98 -90l-285 215q-20 -15 -139.5 -105.5t-147.5 -109.5z" />
<glyph unicode="&#x2dc;" horiz-adv-x="1032" d="M139 1237q100 207 248 207q43 0 97 -24.5t101 -49t74 -24.5q66 0 132 96l122 -72q-95 -203 -233 -203q-55 0 -151 47.5t-132 47.5t-68.5 -21t-72.5 -72z" />
<glyph unicode="&#x2000;" horiz-adv-x="951" />
<glyph unicode="&#x2001;" horiz-adv-x="1903" />
<glyph unicode="&#x2002;" horiz-adv-x="951" />
<glyph unicode="&#x2003;" horiz-adv-x="1903" />
<glyph unicode="&#x2004;" horiz-adv-x="634" />
<glyph unicode="&#x2005;" horiz-adv-x="475" />
<glyph unicode="&#x2006;" horiz-adv-x="317" />
<glyph unicode="&#x2007;" horiz-adv-x="317" />
<glyph unicode="&#x2008;" horiz-adv-x="237" />
<glyph unicode="&#x2009;" horiz-adv-x="380" />
<glyph unicode="&#x200a;" horiz-adv-x="105" />
<glyph unicode="&#x2010;" horiz-adv-x="851" d="M100 432v211h652v-211h-652z" />
<glyph unicode="&#x2011;" horiz-adv-x="851" d="M100 432v211h652v-211h-652z" />
<glyph unicode="&#x2012;" horiz-adv-x="851" d="M100 432v211h652v-211h-652z" />
<glyph unicode="&#x2013;" horiz-adv-x="1050" d="M41 459v207h969v-207h-969z" />
<glyph unicode="&#x2014;" horiz-adv-x="2099" d="M41 459v207h2017v-207h-2017z" />
<glyph unicode="&#x2018;" horiz-adv-x="516" d="M111 944v273l157 280h127l-71 -270h65v-283h-278z" />
<glyph unicode="&#x2019;" horiz-adv-x="516" d="M111 944l71 268h-65v285h278v-274l-157 -279h-127z" />
<glyph unicode="&#x201a;" horiz-adv-x="565" d="M139 -270l72 270h-66v285h271v-275l-158 -280h-119z" />
<glyph unicode="&#x201c;" horiz-adv-x="768" d="M59 944v273l158 280h127l-72 -270h66v-283h-279zM418 944v273l157 280h127l-71 -270h65v-283h-278z" />
<glyph unicode="&#x201d;" horiz-adv-x="768" d="M70 944l71 268h-65v285h278v-274l-157 -279h-127zM428 944l72 268h-66v285h279v-274l-158 -279h-127z" />
<glyph unicode="&#x201e;" horiz-adv-x="933" d="M139 -270l72 270h-66v285h281v-275l-158 -280h-129zM500 -270l71 270h-65v285h278v-275l-157 -280h-127z" />
<glyph unicode="&#x2022;" horiz-adv-x="907" d="M174 561q0 123 86 210t209 87t210 -87t87 -210t-87 -210t-210 -87t-209 87t-86 210z" />
<glyph unicode="&#x2026;" horiz-adv-x="1882" d="M172 0v283h279v-283h-279zM803 0v283h278v-283h-278zM1419 0v283h279v-283h-279z" />
<glyph unicode="&#x202f;" horiz-adv-x="380" />
<glyph unicode="&#x2039;" horiz-adv-x="720" d="M94 467l281 410h223l-272 -410l272 -410h-223z" />
<glyph unicode="&#x203a;" horiz-adv-x="720" d="M94 57l273 410l-273 410h223l279 -410l-279 -410h-223z" />
<glyph unicode="&#x205f;" horiz-adv-x="475" />
<glyph unicode="&#x20ac;" d="M31 522v144h84v82h-84v143h84q0 24 4 70q19 209 149.5 339t331.5 130q164 0 280.5 -81.5t172.5 -230.5l-224 -90q-31 78 -91.5 123t-135.5 45q-220 0 -244 -305h385v-143h-387v-82h387v-144h-385q3 -133 65 -219t179 -86q159 0 238 176l223 -86q-141 -319 -463 -319 q-208 0 -335 121.5t-146 341.5q-4 50 -4 71h-84z" />
<glyph unicode="&#x2122;" horiz-adv-x="1753" d="M76 1268v157h680v-157h-254v-688h-172v688h-254zM854 580v845h150l241 -530l232 530h149v-845h-158v471l-163 -355h-127l-162 361v-477h-162z" />
<glyph unicode="&#x25fc;" horiz-adv-x="1013" d="M0 0v1014h1014v-1014h-1014z" />
</font>
</defs>
</svg>
