<?xml version="1.0" standalone="no"?>
<!DOCTYPE svg PUBLIC "-//W3C//DTD SVG 1.1//EN" "http://www.w3.org/Graphics/SVG/1.1/DTD/svg11.dtd" >
<svg xmlns="http://www.w3.org/2000/svg">
<metadata></metadata>
<defs>
<font id="pf_dintext_prohairline" horiz-adv-x="921" >
<font-face units-per-em="2048" ascent="1536" descent="-512" />
<missing-glyph horiz-adv-x="450" />
<glyph unicode="&#xfb01;" horiz-adv-x="786" d="M61 1004v12h115v229q0 124 65.5 179t174.5 55q146 0 248 -95l-9 -8q-93 90 -239 90q-103 0 -165.5 -51.5t-62.5 -169.5v-229h461v-1014h-12v1002h-449v-1002h-12v1002h-115z" />
<glyph unicode="&#xfb02;" horiz-adv-x="835" d="M61 1001v13h113v231q0 234 227 234q116 0 240 -58v-1255q0 -87 35.5 -122.5t124.5 -35.5h14v-12h-14q-95 0 -133.5 38.5t-38.5 131.5v1247q-116 53 -228 53q-215 0 -215 -221v-231h285v-13h-285v-999h-12v999h-113z" />
<glyph unicode="&#xfb03;" horiz-adv-x="1251" d="M61 1004v12h115v186q0 127 71.5 192.5t184.5 65.5q121 0 238 -69q54 102 211 102q146 0 247 -94l-8 -8q-93 90 -239 90q-103 0 -165.5 -51.5t-62.5 -169.5v-244h461v-1016h-12v1004h-449v-1004h-12v1004h-453v-1004h-12v1004h-115zM188 1016h453v244q0 67 23 118 q-118 70 -232 70q-107 0 -175.5 -62.5t-68.5 -183.5v-186z" />
<glyph unicode="&#xfb04;" horiz-adv-x="1302" d="M61 1001v13h115v182q0 127 71.5 192.5t184.5 65.5q120 0 240 -68q53 93 196 93q116 0 240 -58v-1255q0 -87 35.5 -122.5t124.5 -35.5h14v-12h-14q-95 0 -133.5 38.5t-38.5 131.5v1247q-116 53 -228 53q-215 0 -215 -221v-231h285v-13h-285v-999h-12v999h-453v-999h-12 v999h-115zM188 1014h453v231q0 76 25 131q-114 66 -234 66q-107 0 -175.5 -62.5t-68.5 -183.5v-182z" />
<glyph horiz-adv-x="0" />
<glyph horiz-adv-x="682" />
<glyph unicode=" "  horiz-adv-x="450" />
<glyph unicode="&#x09;" horiz-adv-x="450" />
<glyph unicode="&#xa0;" horiz-adv-x="450" />
<glyph unicode="!" horiz-adv-x="405" d="M186 1425h17l-2 -1171h-13zM188 0v82h15v-82h-15z" />
<glyph unicode="&#x22;" horiz-adv-x="430" d="M145 1425h17l-4 -413h-11zM291 1425h16l-4 -413h-10z" />
<glyph unicode="#" d="M-2 518v12h223l62 443h-232l2 12h234l63 438h12l-63 -438h371l63 438h12l-63 -438h236l-3 -12h-237l-62 -443h234v-12h-236l-73 -518h-13l74 518h-371l-73 -518h-13l74 518h-221zM233 530h371l62 443h-371z" />
<glyph unicode="$" d="M41 117l8 8q170 -127 397 -127v741h-2q-56 10 -100.5 21.5t-103 37.5t-97.5 59.5t-66.5 89t-27.5 124.5q0 158 108 264t289 109v166h13v-166q92 0 186 -24t166 -64l-4 -13q-72 40 -165.5 64.5t-182.5 24.5v-682q72 -13 127 -28.5t117.5 -46t103 -70t67.5 -102t27 -141.5 q0 -171 -113.5 -272t-328.5 -104v-193h-13v193q-227 0 -405 131zM61 1071q0 -66 27 -119t65 -85t95 -57t100.5 -36.5t97.5 -21.5v680q-175 -3 -280 -106t-105 -255zM459 -2q209 3 319.5 101t110.5 263q0 54 -13.5 100t-36 80t-56.5 63t-69 48.5t-81 36.5t-85.5 27t-88.5 20 v-739z" />
<glyph unicode="%" horiz-adv-x="1515" d="M125 786v414q0 108 73.5 170t178.5 62t177.5 -62t72.5 -170v-414q0 -106 -72.5 -167.5t-177.5 -61.5t-178.5 61.5t-73.5 167.5zM137 786q0 -100 70.5 -158.5t169.5 -58.5t168 58.5t69 158.5v414q0 101 -69 160t-168 59t-169.5 -59t-70.5 -160v-414zM317 -35l869 1501 l12 -4l-868 -1501zM889 217v414q0 108 73.5 169.5t178.5 61.5t177.5 -61.5t72.5 -169.5v-414q0 -106 -72.5 -167.5t-177.5 -61.5t-178.5 61.5t-73.5 167.5zM901 217q0 -100 70.5 -158.5t169.5 -58.5t168 58.5t69 158.5v414q0 101 -69 160t-168 59t-169.5 -59t-70.5 -160 v-414z" />
<glyph unicode="&#x26;" horiz-adv-x="1267" d="M156 332q0 138 81.5 255t235.5 226l-39 51q-137 179 -137 303q0 51 17 98t51.5 88.5t94.5 66t138 24.5q103 0 171 -21.5t130 -79.5l-8 -8q-59 55 -126.5 76t-166.5 21q-75 0 -133 -23.5t-90.5 -62.5t-49 -84.5t-16.5 -94.5q0 -118 133 -295q174 -228 514 -661 q99 138 119 381h12q-9 -102 -39.5 -208t-84.5 -183l147 -189l-8 -8l-146 186q-156 -200 -426 -200q-163 0 -268.5 90.5t-105.5 251.5zM168 332q0 -155 102.5 -242.5t259.5 -87.5q131 0 234 46t184 153l-467 602q-313 -218 -313 -471z" />
<glyph unicode="'" horiz-adv-x="335" d="M160 1425h16l-4 -413h-10z" />
<glyph unicode="(" horiz-adv-x="507" d="M137 596q0 258 86.5 470.5t249.5 408.5l8 -7q-160 -193 -245.5 -405t-85.5 -467q0 -227 85.5 -447t225.5 -397l-8 -8q-143 181 -229.5 401t-86.5 451z" />
<glyph unicode=")" horiz-adv-x="507" d="M35 1462l8 6q163 -196 249.5 -408t86.5 -470q0 -231 -86.5 -451t-229.5 -401l-8 8q140 178 226 397.5t86 446.5q0 255 -86 467t-246 405z" />
<glyph unicode="*" horiz-adv-x="684" d="M82 1210l8 21l252 -90l-2 274h20l-8 -274l252 88l6 -19l-256 -82l170 -217l-18 -12l-160 223l-162 -221l-18 12l172 215z" />
<glyph unicode="+" d="M49 559v14h400v406h14v-406h403v-14h-403v-426h-14v426h-400z" />
<glyph unicode="," horiz-adv-x="208" d="M63 -195l48 261h28l-61 -261h-15z" />
<glyph unicode="-" horiz-adv-x="735" d="M113 537v18h508v-18h-508z" />
<glyph unicode="." horiz-adv-x="184" d="M80 0v66h29v-66h-29z" />
<glyph unicode="/" horiz-adv-x="911" d="M10 -35l881 1497h14l-878 -1497h-17z" />
<glyph unicode="0" d="M92 360v703q0 173 107 272t262 99t261.5 -99t106.5 -272v-703q0 -116 -51.5 -201t-133.5 -126t-183 -41t-183.5 41t-134 126t-51.5 201zM104 360q0 -166 104 -261t253 -95t252.5 95t103.5 261v703q0 166 -103.5 262t-252.5 96t-253 -96t-104 -262v-703z" />
<glyph unicode="1" d="M281 1264v14l227 149h12v-1427h-12v1415z" />
<glyph unicode="2" d="M88 0v12l647 826q90 114 90 264q0 133 -95.5 225t-264.5 92q-116 0 -214.5 -70t-133.5 -182l-13 4q35 115 138 188t223 73q175 0 274 -95.5t99 -234.5q0 -67 -24.5 -140t-70.5 -133l-641 -817h752v-12h-766z" />
<glyph unicode="3" d="M82 209l12 4q24 -78 81 -127t120 -66.5t137 -17.5q172 0 284.5 107t112.5 282q0 88 -36.5 166t-113.5 131t-179 53h-181v13h170q142 0 230 96t88 225q0 70 -22.5 131.5t-66 110.5t-115.5 77.5t-163 28.5q-118 0 -207.5 -58.5t-126.5 -160.5l-12 4q37 105 130.5 166.5 t215.5 61.5q94 0 168 -29.5t119.5 -80t68.5 -114.5t23 -137q0 -41 -11.5 -85t-37.5 -92.5t-78 -88.5t-123 -59q79 -19 136 -63t85 -99.5t40 -104t12 -92.5q0 -181 -116 -291t-294 -110q-57 0 -108 11t-100 34.5t-86.5 68t-55.5 105.5z" />
<glyph unicode="4" d="M55 281v14l514 1130h15l-514 -1132h614v571h12v-571h195v-12h-195v-281h-12v281h-629z" />
<glyph unicode="5" d="M119 197l12 4q36 -92 117 -145.5t207 -53.5q182 0 274 101.5t92 271.5v192q0 78 -19 141.5t-58.5 114t-107 78t-159.5 27.5q-42 0 -90.5 -11t-118 -49t-125.5 -98h-10v653h664v-12h-652v-620q77 79 170.5 114t161.5 35q95 0 165 -28.5t111.5 -80t61 -117.5t19.5 -147 v-192q0 -176 -95.5 -280.5t-283.5 -104.5q-129 0 -213 56t-123 151z" />
<glyph unicode="6" d="M106 389q0 121 52 225l405 811h15l-373 -747q103 115 284 115q70 0 134.5 -24.5t116 -71t82 -120.5t30.5 -165q0 -111 -32 -195t-87.5 -132t-122.5 -71.5t-145 -23.5q-67 0 -130 25t-114.5 72.5t-83 126t-31.5 175.5zM119 389q0 -95 30 -170.5t79.5 -122t110.5 -70.5 t126 -24q77 0 142.5 22.5t118.5 69.5t83.5 128.5t30.5 189.5q0 117 -50.5 202.5t-128.5 125.5t-172 40q-176 0 -273 -109.5t-97 -281.5z" />
<glyph unicode="7" d="M96 1161v264h746v-10l-529 -1415h-12l528 1413h-720v-252h-13z" />
<glyph unicode="8" d="M74 373q0 38 9 78.5t32 86t56.5 84t89 69t124.5 42.5q-68 12 -120.5 42t-82.5 65.5t-49 79t-25 79t-6 70.5q0 157 107 260t266 103q164 0 268.5 -102t104.5 -261q0 -49 -16.5 -100t-49 -100t-90.5 -85.5t-133 -48.5q70 -9 127 -39t91.5 -68.5t58 -85.5t32.5 -88.5 t9 -80.5q0 -170 -115.5 -276.5t-286.5 -106.5t-286 106.5t-115 276.5zM86 373q0 -164 112 -267.5t277 -103.5t277 103.5t112 267.5q0 27 -6 59t-20 74t-43 80t-69 71t-104 52.5t-143 19.5q-94 0 -167.5 -28.5t-114.5 -69.5t-67.5 -93t-35 -92t-8.5 -73zM115 1069 q0 -32 6.5 -67.5t29 -84.5t59 -86t105 -63.5t158.5 -26.5q84 0 150.5 24.5t105 61t64 83t34.5 85.5t9 74q0 153 -101.5 251.5t-259.5 98.5q-153 0 -256.5 -99.5t-103.5 -250.5z" />
<glyph unicode="9" d="M106 1014q0 111 32 195t88 132t123 71.5t145 23.5q70 0 133.5 -25t114 -73t80.5 -126t30 -176q0 -123 -51 -225l-406 -811h-14l373 748q-103 -115 -285 -115q-70 0 -134.5 24.5t-116 71t-82 120.5t-30.5 165zM119 1014q0 -89 29 -160.5t78 -116t111.5 -68.5t131.5 -24 q177 0 274 108t97 283q0 95 -29 170.5t-77.5 122t-110 70.5t-129.5 24q-77 0 -142 -22.5t-118.5 -69t-84 -128t-30.5 -189.5z" />
<glyph unicode=":" horiz-adv-x="227" d="M102 0v53h27v-53h-27zM102 715v53h27v-53h-27z" />
<glyph unicode=";" horiz-adv-x="227" d="M59 -195l47 246h29l-61 -246h-15zM102 715v53h27v-53h-27z" />
<glyph unicode="&#x3c;" d="M57 551v12l795 361v-15l-778 -352l778 -352v-15z" />
<glyph unicode="=" d="M94 369v14h725v-14h-725zM94 676v14h725v-14h-725z" />
<glyph unicode="&#x3e;" d="M57 190v15l779 352l-779 352v15l795 -361v-12z" />
<glyph unicode="?" horiz-adv-x="858" d="M41 1116q36 150 142.5 236t242.5 86q160 0 259 -97.5t99 -248.5q0 -53 -13 -99.5t-44 -93.5t-50.5 -70.5t-64.5 -74.5q-84 -92 -122.5 -161.5t-38.5 -156.5v-182h-13v182q0 90 39 160.5t127 165.5q40 43 63 71t51 71t41 89.5t13 98.5q0 144 -96 238.5t-250 94.5 q-131 0 -234 -83t-139 -230zM436 0v82h15v-82h-15z" />
<glyph unicode="@" horiz-adv-x="1548" d="M63 688q0 214 89.5 385t257 270t385.5 99q144 0 269.5 -42.5t221 -122t150.5 -203.5t55 -277q0 -242 -84 -366t-236 -124q-52 0 -103 33.5t-62 97.5q-21 -38 -57.5 -67.5t-77 -45t-75.5 -23t-63 -7.5q-54 0 -100 11t-85 34.5t-61 65.5t-22 98q0 100 63.5 160.5 t184.5 60.5h291v129q0 65 -17.5 108.5t-52.5 65.5t-75.5 30.5t-98.5 8.5q-145 0 -260 -76l-6 10q116 78 266 78q46 0 81 -4.5t69.5 -19t56.5 -39t35.5 -65.5t13.5 -97v-381q0 -42 16.5 -74t41.5 -48t50 -24t47 -8q147 0 227.5 121t80.5 357q0 121 -35.5 224t-98 177.5 t-148.5 127t-188 78.5t-214 26q-214 0 -378.5 -97.5t-252.5 -266t-88 -378.5q0 -228 98 -400.5t269.5 -263t392.5 -90.5q204 0 407 78l4 -12q-204 -78 -411 -78q-225 0 -400 92t-274 267t-99 407zM477 504q0 -102 73.5 -149.5t182.5 -47.5q29 0 71 10.5t88.5 31.5t79 61 t32.5 90v213h-291q-115 0 -175.5 -57.5t-60.5 -151.5z" />
<glyph unicode="A" horiz-adv-x="1140" d="M20 0l545 1425h13l542 -1425h-14l-143 379h-787q-19 -50 -143 -379h-13zM180 391h778l-387 1022z" />
<glyph unicode="B" horiz-adv-x="1208" d="M143 0v1425h512q185 0 290.5 -98.5t105.5 -251.5q0 -42 -13.5 -89.5t-42.5 -98.5t-84.5 -91.5t-128.5 -56.5q64 -10 116.5 -38.5t86.5 -66.5t57 -84t33 -90.5t10 -86.5q0 -166 -106.5 -269.5t-267.5 -103.5h-568zM156 12h555q155 0 258.5 100.5t103.5 260.5 q0 43 -10.5 88.5t-37.5 95t-67 88t-104.5 63.5t-144.5 25h-553v-721zM156 745h553q74 0 133.5 25t95 62t59 84t32.5 86t9 73q0 146 -102 242t-281 96h-499v-668z" />
<glyph unicode="C" horiz-adv-x="1105" d="M123 502v436q0 103 30.5 192t89.5 158t153.5 108.5t213.5 39.5q143 0 249 -63t165 -171l-12 -4q-56 105 -159 165t-243 60q-116 0 -208 -38.5t-149.5 -106t-87.5 -154t-30 -186.5v-436q0 -104 29.5 -193.5t87.5 -159t151.5 -109.5t212.5 -40q149 0 255.5 69t160.5 189 l12 -4q-58 -124 -165.5 -195t-262.5 -71q-122 0 -218 40.5t-155 111.5t-89.5 163t-30.5 199z" />
<glyph unicode="D" horiz-adv-x="1218" d="M143 0v1425h455q174 0 280 -62t169 -192q31 -64 40 -166.5t9 -267.5q0 -188 -8 -291.5t-39 -175.5q-117 -270 -476 -270h-430zM156 12h417q352 0 463 262q31 72 39 175.5t8 287.5q0 163 -9 264.5t-40 165.5q-59 128 -166 187t-270 59h-442v-1401z" />
<glyph unicode="E" horiz-adv-x="1054" d="M143 0v1425h813v-12h-800v-659h708v-13h-708v-729h845v-12h-858z" />
<glyph unicode="F" horiz-adv-x="999" d="M143 0v1425h836v-12h-823v-688h708v-12h-708v-713h-13z" />
<glyph unicode="G" horiz-adv-x="1198" d="M123 500v438q0 103 30.5 192t89 158t152.5 108.5t213 39.5q144 0 253.5 -63t168.5 -171l-12 -6q-57 105 -163 166t-247 61q-115 0 -207 -38.5t-149 -106t-87 -154t-30 -186.5v-438q0 -104 28.5 -193.5t85 -159t148.5 -109.5t211 -40q221 0 348 142.5t127 357.5v180h-356 v12h369v-192q0 -107 -32.5 -200t-93.5 -162.5t-154 -109.5t-208 -40q-122 0 -216.5 40.5t-152 111.5t-87 162.5t-29.5 199.5z" />
<glyph unicode="H" horiz-adv-x="1228" d="M143 0v1425h13v-677h917v677h12v-1425h-12v735h-917v-735h-13z" />
<glyph unicode="I" horiz-adv-x="380" d="M184 0v1425h13v-1425h-13z" />
<glyph unicode="J" horiz-adv-x="839" d="M20 63l9 13q55 -36 127 -59t131 -23q180 0 278.5 96t98.5 291v1044h12v-1044q0 -201 -101.5 -300t-287.5 -99q-63 0 -138 23t-129 58z" />
<glyph unicode="K" horiz-adv-x="1138" d="M143 0v1425h13v-1013l825 1013h14l-420 -516l523 -909h-15l-516 899l-411 -506v-393h-13z" />
<glyph unicode="L" horiz-adv-x="1001" d="M143 0v1425h13v-1413h825v-12h-838z" />
<glyph unicode="M" horiz-adv-x="1538" d="M143 0v1425h13l614 -1155q211 432 612 1155h13v-1425h-13v1401q-419 -766 -606 -1147h-12l-608 1145v-1399h-13z" />
<glyph unicode="N" horiz-adv-x="1296" d="M143 0v1425h13l985 -1405v1405h12v-1425h-12l-985 1405v-1405h-13z" />
<glyph unicode="O" horiz-adv-x="1210" d="M123 500v438q0 103 30.5 192t89 158t152.5 108.5t213 39.5q223 0 351 -137.5t128 -360.5v-438q0 -237 -128 -375.5t-351 -138.5q-122 0 -216.5 40.5t-152 111.5t-87 162.5t-29.5 199.5zM135 500q0 -104 28.5 -193.5t85 -159t148.5 -109.5t211 -40q217 0 342 135.5 t125 366.5v438q0 217 -125 351t-342 134q-115 0 -207 -38.5t-149 -106t-87 -154t-30 -186.5v-438z" />
<glyph unicode="P" horiz-adv-x="1116" d="M143 0v1425h504q70 0 131 -13t116.5 -43.5t95 -76t62.5 -114.5t23 -156q0 -70 -24.5 -137.5t-72.5 -125t-129.5 -93t-184.5 -35.5h-508v-631h-13zM156 643h508q100 0 179 34t125.5 90t70.5 121t24 134q0 104 -34 182t-93.5 122.5t-131.5 65.5t-157 21h-491v-770z" />
<glyph unicode="Q" horiz-adv-x="1210" d="M123 500v438q0 103 30.5 192t89 158t152.5 108.5t213 39.5q223 0 351 -137.5t128 -360.5v-438q0 -201 -96 -336l199 -158l-8 -8l-197 156q-130 -168 -377 -168q-122 0 -216.5 40.5t-152 111.5t-87 162.5t-29.5 199.5zM135 500q0 -104 28.5 -193.5t85 -159t148.5 -109.5 t211 -40q241 0 367 164l-260 209l8 8l258 -207q94 129 94 328v438q0 217 -125 351t-342 134q-115 0 -207 -38.5t-149 -106t-87 -154t-30 -186.5v-438z" />
<glyph unicode="R" horiz-adv-x="1122" d="M143 0v1425h514q184 0 294 -93.5t110 -262.5q0 -79 -23 -146t-71 -122.5t-132 -87t-196 -31.5l412 -682h-13l-411 682h-471v-682h-13zM156 694h489q104 0 183.5 30t126.5 82.5t70.5 118.5t23.5 144q0 163 -107.5 253.5t-284.5 90.5h-501v-719z" />
<glyph unicode="S" horiz-adv-x="1089" d="M82 111l8 12q98 -58 218 -91.5t235 -33.5q126 0 227 38.5t163 118t62 189.5q0 79 -29 143t-72 105t-105.5 73.5t-116 49t-117.5 30.5q-57 12 -92 20t-84 23.5t-78.5 31.5t-63 41.5t-51.5 56.5t-30.5 74t-12.5 95q0 166 112.5 257.5t317.5 91.5q201 0 373 -86l-6 -13 q-172 86 -367 86q-199 0 -308 -88t-109 -248q0 -68 22.5 -120t56 -84t91.5 -57.5t107.5 -39t125.5 -28.5q64 -13 119.5 -30.5t119 -50.5t107.5 -76t73.5 -109.5t29.5 -147.5q0 -170 -132 -264t-333 -94q-118 0 -240.5 33.5t-220.5 91.5z" />
<glyph unicode="T" horiz-adv-x="995" d="M20 1413v12h955v-12h-471v-1413h-12v1413h-472z" />
<glyph unicode="U" horiz-adv-x="1206" d="M123 475v950h12v-950q0 -141 62.5 -250.5t169 -167t237.5 -57.5q201 0 334 127t133 328v970h12v-970q0 -208 -136 -337.5t-343 -129.5q-135 0 -244 59t-173 171t-64 257z" />
<glyph unicode="V" horiz-adv-x="1138" d="M41 1425h12l516 -1405l514 1405h15l-523 -1425h-12z" />
<glyph unicode="W" horiz-adv-x="1718" d="M41 1425h12l389 -1405l410 1405h12l412 -1405l389 1405h12l-395 -1425h-12l-412 1403l-409 -1403h-13z" />
<glyph unicode="X" horiz-adv-x="993" d="M20 0l467 729l-444 696h16l437 -682l438 682h18l-448 -696l469 -729h-17l-460 715l-457 -715h-19z" />
<glyph unicode="Y" horiz-adv-x="1015" d="M20 1425h15l477 -817l469 817h14l-479 -837v-588h-12v594z" />
<glyph unicode="Z" horiz-adv-x="1091" d="M82 0v12l889 1401h-848v12h862v-14l-887 -1399h912v-12h-928z" />
<glyph unicode="[" horiz-adv-x="450" d="M156 -225v1648h264v-12h-252v-1624h252v-12h-264z" />
<glyph unicode="\" horiz-adv-x="911" d="M10 1462h15l880 -1497h-16z" />
<glyph unicode="]" horiz-adv-x="450" d="M82 -213h250v1624h-250v12h262v-1648h-262v12z" />
<glyph unicode="^" d="M115 702l340 715h12l330 -715h-15l-321 699l-332 -699h-14z" />
<glyph unicode="_" horiz-adv-x="1003" d="M0 -143h1004v-15h-1004v15z" />
<glyph unicode="`" horiz-adv-x="976" d="M432 1427l14 13l216 -252l-11 -6z" />
<glyph unicode="a" horiz-adv-x="950" d="M72 264q0 135 85 209t234 74h424v166q0 87 -25 146.5t-73 91t-106.5 44.5t-137.5 13q-196 0 -321 -101l-9 11q125 102 330 102q82 0 142.5 -13.5t110.5 -46.5t75.5 -95t25.5 -152v-713h-12v207q-19 -62 -66 -107t-107.5 -67t-115.5 -31.5t-108 -9.5q-158 0 -252 70 t-94 202zM84 264q0 -126 91 -193t243 -67q46 0 93 6.5t102 25t97 47.5t72 79t33 114v259h-424q-143 0 -225 -71t-82 -200z" />
<glyph unicode="b" horiz-adv-x="972" d="M123 0v1477h12v-807q12 73 37 133t67 110.5t107.5 78.5t149.5 28q179 0 276.5 -125.5t97.5 -382.5q0 -276 -96 -399t-287 -123q-146 0 -234.5 81t-117.5 255v-326h-12zM135 498q0 -261 89.5 -378.5t262.5 -117.5q184 0 277.5 120.5t93.5 389.5q0 250 -94 373t-268 123 q-86 0 -152 -31.5t-104.5 -81t-63 -119t-33 -136t-8.5 -142.5z" />
<glyph unicode="c" horiz-adv-x="860" d="M102 506q0 138 33 240.5t92 161t131.5 86.5t159.5 28q149 0 268 -90l-8 -10q-118 88 -260 88q-67 0 -125 -16.5t-109.5 -54t-88.5 -94.5t-58.5 -143.5t-21.5 -195.5q0 -114 20.5 -201.5t55.5 -144t87 -92.5t110.5 -51t129.5 -15q78 0 153.5 24.5t129.5 67.5l8 -10 q-57 -44 -134 -69t-157 -25q-94 0 -167 25.5t-130.5 83t-88 160t-30.5 247.5z" />
<glyph unicode="d" horiz-adv-x="972" d="M102 512q0 255 103.5 381.5t279.5 126.5q295 0 353 -344v801h12v-1477h-12v326q-55 -336 -363 -336q-189 0 -281 122t-92 400zM115 512q0 -271 88.5 -390.5t271.5 -119.5q363 0 363 496q0 510 -353 510q-170 0 -270 -125t-100 -371z" />
<glyph unicode="e" horiz-adv-x="960" d="M102 502q0 119 24 211.5t62.5 148.5t91.5 92.5t105.5 50t110.5 13.5q83 0 148.5 -24t109 -66t72 -101t41 -126t12.5 -144v-31h-764v-24q0 -119 24.5 -209.5t63 -144.5t94 -88t109.5 -46t118 -12q134 0 252 74l8 -13q-116 -73 -260 -73q-65 0 -121 12t-113 46.5t-97 89.5 t-65.5 148.5t-25.5 215.5zM115 539h751v18q0 95 -20 173t-62 141.5t-115.5 99t-172.5 35.5q-55 0 -104.5 -12.5t-100 -45t-87 -83.5t-61.5 -134.5t-28 -191.5z" />
<glyph unicode="f" horiz-adv-x="505" d="M66 1001v13h139v235q0 113 53.5 170.5t157.5 57.5h90v-13h-90q-98 0 -148.5 -54.5t-50.5 -160.5v-235h289v-13h-289v-1001h-12v1001h-139z" />
<glyph unicode="g" horiz-adv-x="972" d="M102 489q0 269 98.5 400t284.5 131q298 0 353 -336v332h12v-1012q0 -113 -33 -197.5t-92.5 -133.5t-133.5 -73t-163 -24q-136 0 -246 72l8 12q106 -72 238 -72q86 0 158 23t129.5 71t90 130t32.5 192v338q-12 -73 -37 -133t-67 -111t-107.5 -79.5t-149.5 -28.5 q-89 0 -156.5 26.5t-117.5 84t-75.5 155t-25.5 233.5zM115 489q0 -256 92.5 -371.5t269.5 -115.5q86 0 152 31.5t104.5 81t63 119t33 136t8.5 142.5q0 261 -90 378.5t-263 117.5q-179 0 -274.5 -128t-95.5 -391z" />
<glyph unicode="h" horiz-adv-x="980" d="M123 0v1477h12v-772q32 139 136.5 226t236.5 87q166 0 258 -87.5t92 -254.5v-676h-12v676q0 161 -89 245.5t-249 84.5q-153 0 -263 -118.5t-110 -283.5v-604h-12z" />
<glyph unicode="i" horiz-adv-x="339" d="M164 0v1014h12v-1014h-12zM164 1280v100h12v-100h-12z" />
<glyph unicode="j" horiz-adv-x="387" d="M-35 -408h19q107 0 161 66t54 172v1184h12v-1184q0 -112 -57 -181t-170 -69h-19v12zM199 1280v100h12v-100h-12z" />
<glyph unicode="k" horiz-adv-x="888" d="M123 0v1479h12v-1162l617 697h14l-330 -373l432 -641h-14l-426 633l-293 -332v-301h-12z" />
<glyph unicode="l" horiz-adv-x="409" d="M154 199v1280h12v-1280q0 -102 50.5 -145.5t156.5 -43.5h16v-12h-16q-112 0 -165.5 46.5t-53.5 154.5z" />
<glyph unicode="m" horiz-adv-x="1677" d="M123 0v1016h12v-277q31 129 127.5 204t231.5 75q142 0 237.5 -76.5t110.5 -216.5q29 133 132.5 213t242.5 80q153 0 245 -88.5t92 -253.5v-676h-12v676q0 158 -89 244t-236 86q-156 0 -264.5 -103t-108.5 -270v-633h-13v676q0 157 -94.5 243.5t-242.5 86.5 q-157 0 -258 -104t-101 -271v-631h-12z" />
<glyph unicode="n" horiz-adv-x="980" d="M123 0v1012h12v-307q32 139 136.5 226t236.5 87q166 0 258 -87.5t92 -254.5v-676h-12v676q0 161 -89 245.5t-249 84.5q-153 0 -263 -118.5t-110 -283.5v-604h-12z" />
<glyph unicode="o" horiz-adv-x="1001" d="M102 512q0 133 31 232.5t87 159t127.5 88t158.5 28.5q89 0 158.5 -29.5t113 -78t71.5 -117t39 -141t11 -156.5q0 -114 -20 -202t-55.5 -145t-87 -94t-110.5 -52t-130 -15q-192 0 -293 123.5t-101 398.5zM115 512q0 -268 97.5 -389t283.5 -121q87 0 155 24.5t122.5 80 t84 154t29.5 237.5q0 78 -10.5 148t-37.5 137.5t-69 116t-109.5 78.5t-154.5 30q-174 0 -282.5 -124t-108.5 -372z" />
<glyph unicode="p" horiz-adv-x="972" d="M123 -410v1424h12v-330q55 336 363 336q182 0 277 -123.5t95 -398.5q0 -255 -100 -381.5t-276 -126.5q-68 0 -123.5 18.5t-94.5 49.5t-68 75.5t-46 93.5t-27 107v-744h-12zM135 512q0 -76 8.5 -142.5t32.5 -136t62.5 -119t104 -81t151.5 -31.5q169 0 266.5 124.5 t97.5 371.5q0 268 -92 389t-268 121q-363 0 -363 -496z" />
<glyph unicode="q" horiz-adv-x="972" d="M102 492q0 277 96.5 402.5t286.5 125.5q298 0 353 -336v330h12v-1422h-12v748q-12 -73 -37 -133t-67 -110.5t-107.5 -78.5t-149.5 -28q-179 0 -277 123t-98 379zM115 492q0 -249 93.5 -369.5t268.5 -120.5q86 0 152 31.5t104.5 81t63 119t33 136t8.5 142.5 q0 261 -90 378.5t-263 117.5q-184 0 -277 -123t-93 -393z" />
<glyph unicode="r" horiz-adv-x="616" d="M143 0v1014h13v-275q28 126 124 203.5t230 77.5q47 0 102 -14l-4 -13q-58 15 -98 15q-153 0 -253.5 -104t-100.5 -265v-639h-13z" />
<glyph unicode="s" horiz-adv-x="911" d="M82 98l8 11q142 -103 361 -103q180 0 273 73t93 185q0 56 -21 100t-51.5 71t-80 48t-92 31.5t-101.5 20.5q-43 8 -67.5 12.5t-64 15t-63 20.5t-52 27.5t-44 38.5t-26.5 50.5t-11 64.5q0 124 95.5 190t244.5 66q75 0 153.5 -20.5t135.5 -53.5l-6 -12q-57 33 -134 53.5 t-149 20.5q-142 0 -234.5 -63t-92.5 -181q0 -33 11 -61t25.5 -47t43 -36t50 -26.5t61.5 -20t61 -14.5t65 -12t74.5 -14.5t70.5 -19t67.5 -26t57 -35t47 -47.5t28.5 -62t11 -79q0 -118 -96 -194t-282 -76q-227 0 -369 104z" />
<glyph unicode="t" horiz-adv-x="512" d="M55 1001v13h146v289h12v-289h223v-13h-223v-804q0 -91 49.5 -140t136.5 -49h62v-12h-62q-93 0 -145.5 52t-52.5 149v804h-146z" />
<glyph unicode="u" horiz-adv-x="960" d="M123 332v682h12v-682q0 -162 84.5 -246t243.5 -84q152 0 257 117.5t105 283.5v611h13v-1014h-13v303q-32 -140 -131.5 -226.5t-230.5 -86.5q-165 0 -252.5 87t-87.5 255z" />
<glyph unicode="v" horiz-adv-x="823" d="M20 1014h15l379 -1000l374 1000h15l-381 -1014h-16z" />
<glyph unicode="w" horiz-adv-x="1406" d="M31 1014h14l307 -1000l344 1000h15l344 -1000l307 1000h14l-313 -1014h-16l-345 997l-342 -997h-16z" />
<glyph unicode="x" horiz-adv-x="817" d="M31 0l368 520l-352 494h14l345 -486l344 486h14l-350 -494l372 -520h-14l-364 512l-363 -512h-14z" />
<glyph unicode="y" horiz-adv-x="839" d="M20 1014h13l395 -1022l379 1022h12l-465 -1262q-32 -84 -87.5 -130t-123.5 -46h-45v12h45q63 0 116.5 44.5t82.5 123.5l78 217z" />
<glyph unicode="z" horiz-adv-x="784" d="M31 0v10l700 994h-651v10h665v-10l-700 -994h709v-10h-723z" />
<glyph unicode="{" horiz-adv-x="450" d="M111 598v8q35 11 57.5 35t31.5 60t12 65.5t3 73.5v368q0 31 1 51t4.5 49t12.5 47t23 36t37.5 27t54.5 9h72v-12h-72q-34 0 -57.5 -13.5t-35.5 -31.5t-19 -49.5t-8 -54t-1 -58.5v-368q0 -94 -19.5 -154t-76.5 -84q33 -15 53.5 -40t29 -62.5t11 -68t2.5 -81.5v-354 q0 -36 1 -58.5t8 -54t19 -49.5t35.5 -31.5t57.5 -13.5h72v-12h-72q-31 0 -54.5 9t-37.5 27t-23 36t-12.5 47t-4.5 49t-1 51v354q0 39 -1 64t-7 59t-16.5 55.5t-30.5 41t-49 28.5z" />
<glyph unicode="|" horiz-adv-x="325" d="M160 -332v1798h14v-1798h-14z" />
<glyph unicode="}" horiz-adv-x="450" d="M66 -211h71q34 0 57.5 13.5t35.5 31.5t19 49.5t8 54t1 58.5v354q0 51 2.5 81.5t11 68t29 62.5t53.5 40q-57 24 -76.5 84t-19.5 154v368q0 36 -1 58.5t-8 54t-19 49.5t-35.5 31.5t-57.5 13.5h-71v12h71q31 0 54.5 -9t37.5 -27t23 -36t12.5 -47t4.5 -49t1 -51v-368 q0 -43 3 -73t12.5 -66t32 -60t57.5 -35v-8q-29 -9 -49.5 -28.5t-31 -41t-16.5 -55t-7 -59t-1 -64.5v-354q0 -31 -1 -51t-4.5 -49t-12.5 -47t-23 -36t-37.5 -27t-54.5 -9h-71v12z" />
<glyph unicode="~" d="M106 500q89 112 203 112q71 0 187 -49q107 -43 161 -43q89 0 170 96l9 -8q-87 -100 -179 -100q-58 0 -165 43q-116 49 -183 49q-111 0 -194 -108z" />
<glyph unicode="&#xa1;" horiz-adv-x="405" d="M193 -426l2 1171h12l2 -1171h-16zM195 928v82h14v-82h-14z" />
<glyph unicode="&#xa2;" d="M123 629q0 133 31 233t86.5 159.5t124 89.5t151.5 34v229h12v-229h11q149 0 268 -90l-8 -11q-120 89 -260 89h-11v-1008h11q78 0 153 24.5t129 67.5l8 -10q-57 -44 -133.5 -69t-156.5 -25h-11v-219h-12v219q-71 2 -129 19.5t-108 55t-84 95.5t-53 145.5t-19 200.5z M135 629q0 -111 19 -196.5t52.5 -142t82 -93.5t104 -53.5t123.5 -18.5v1008q-81 -4 -147.5 -33.5t-120 -87.5t-83.5 -155.5t-30 -227.5z" />
<glyph unicode="&#xa3;" d="M57 657v13h166q-12 84 -49 196q-2 7 -10.5 31.5t-11.5 33.5t-10 30.5t-9.5 34.5t-6.5 31t-5.5 34t-1.5 31q0 68 20.5 127.5t61.5 108t109.5 76.5t156.5 28q122 0 206 -36.5t181 -117.5l-8 -8q-93 78 -176.5 113.5t-202.5 35.5q-85 0 -151.5 -27t-105.5 -73.5t-59 -104 t-20 -122.5q0 -81 53 -222q38 -104 54 -200h337v-13h-337q6 -43 6 -86q0 -138 -45.5 -290t-122.5 -269h782v-12h-797v10q77 119 123.5 272t46.5 289q0 39 -6 86h-168z" />
<glyph unicode="&#xa4;" horiz-adv-x="1009" d="M207 332l115 114q-89 89 -89 218t84 219l-110 114l8 9l111 -115q94 94 227 94q140 0 233 -100l119 121l8 -9l-120 -123q77 -86 77 -210q0 -122 -79 -211l122 -121l-8 -8l-123 120q-91 -94 -229 -94q-132 0 -223 88l-115 -114zM246 664q0 -125 90 -213.5t217 -88.5 q128 0 216.5 88.5t88.5 213.5q0 129 -88 219t-217 90q-128 0 -217.5 -90t-89.5 -219z" />
<glyph unicode="&#xa5;" d="M57 1425h15l389 -757l395 757h14l-397 -759h389v-11h-397v-163h397v-11h-397v-481h-12v481h-373v11h373v163h-373v11h369z" />
<glyph unicode="&#xa6;" horiz-adv-x="325" d="M150 -332v846h12v-846h-12zM150 625v841h12v-841h-12z" />
<glyph unicode="&#xa7;" horiz-adv-x="897" d="M94 -45l10 10q53 -48 139.5 -81.5t166.5 -33.5q82 0 147.5 23t105.5 60t61 81.5t21 91.5q0 35 -10 66t-24.5 54.5t-40.5 46.5t-48 38t-57.5 32.5t-59.5 27.5t-63 26q-7 3 -10 4q-46 19 -71 30t-66.5 31.5t-64.5 37t-52.5 42.5t-44.5 52.5t-26 61.5t-11 75q0 62 34 143 t91 127q-94 68 -94 164q0 130 84.5 201.5t228.5 71.5q176 0 301 -97l-8 -10q-122 94 -293 94q-138 0 -219.5 -68t-81.5 -192q0 -29 9.5 -55.5t22.5 -46t39 -39t46.5 -32.5t58.5 -29.5t60.5 -25t66.5 -24.5q42 -15 60.5 -22.5t57 -23.5t58 -26.5t51 -29t48 -34.5t37.5 -39.5 t31.5 -47.5t18 -54.5t7.5 -64.5q0 -67 -41.5 -150.5t-101.5 -129.5q90 -74 90 -185q0 -104 -91.5 -186t-256.5 -82q-85 0 -173 32.5t-143 84.5zM109 731q0 -38 10.5 -72t25 -59.5t43 -50.5t50.5 -40.5t63 -35.5t64.5 -30t70.5 -29q154 -62 223 -115q57 43 98.5 125.5 t41.5 146.5q0 36 -7.5 68t-25 59t-35 48t-48.5 41.5t-53.5 34t-62.5 30t-63 25t-66 24.5q-145 50 -209 94q-54 -41 -87 -120.5t-33 -143.5z" />
<glyph unicode="&#xa8;" horiz-adv-x="976" d="M362 1264v65h17v-65h-17zM604 1264v65h17v-65h-17z" />
<glyph unicode="&#xa9;" horiz-adv-x="1572" d="M102 698q0 152 53.5 286t146 229.5t220.5 150.5t273 55t274 -55t221.5 -150.5t146.5 -229.5t54 -286q0 -202 -91.5 -366.5t-251 -258t-353.5 -93.5q-193 0 -352 93.5t-250 258t-91 366.5zM115 698q0 -148 53 -279t143.5 -224.5t216.5 -148t267 -54.5q142 0 269 54.5 t218 148t144 224.5t53 279q0 149 -53 280.5t-144 225.5t-218 148.5t-269 54.5q-141 0 -267 -54.5t-216.5 -148.5t-143.5 -225.5t-53 -280.5zM504 569v250q0 130 79.5 217.5t219.5 87.5q86 0 155 -41t107 -110l-12 -4q-34 66 -100.5 104.5t-149.5 38.5q-133 0 -210 -84.5 t-77 -208.5v-250q0 -129 73 -214t214 -85q85 0 152.5 42.5t101.5 115.5l12 -4q-37 -76 -107.5 -121t-158.5 -45q-147 0 -223 88t-76 223z" />
<glyph unicode="&#xaa;" horiz-adv-x="669" d="M51 748q0 89 59.5 136.5t174.5 47.5h290v98q0 113 -59.5 155t-173.5 42q-143 0 -236 -78l-8 10q100 80 244 80q120 0 183 -45t63 -164v-461h-13v125q-59 -141 -270 -141q-107 0 -180.5 48t-73.5 147zM63 748q0 -63 36.5 -106t88.5 -60t117 -17q31 0 62 4t70.5 17.5 t68.5 35t49 61t20 91.5v146h-290q-108 0 -165 -45t-57 -127z" />
<glyph unicode="&#xab;" horiz-adv-x="712" d="M168 436l223 336h12l-221 -336l232 -342h-15zM354 436l224 336h12l-221 -336l231 -342h-14z" />
<glyph unicode="&#xac;" d="M49 559v14h817v-440h-14v426h-803z" />
<glyph unicode="&#xad;" horiz-adv-x="735" d="M113 537v18h508v-18h-508z" />
<glyph unicode="&#xae;" horiz-adv-x="1103" d="M141 1008q0 188 121 314t297 126q180 0 299 -125.5t119 -314.5q0 -187 -120.5 -314t-297.5 -127q-175 0 -296.5 127t-121.5 314zM154 1008q0 -181 118 -304.5t287 -123.5q171 0 288.5 123.5t117.5 304.5q0 183 -116.5 305.5t-289.5 122.5q-170 0 -287.5 -123t-117.5 -305 zM406 758v506h202q69 0 112.5 -36.5t43.5 -99.5q0 -57 -34.5 -97.5t-106.5 -47.5l120 -225h-14l-121 225h-190v-225h-12zM418 995h176q82 0 120 38t38 95t-40.5 90t-103.5 33h-190v-256z" />
<glyph unicode="&#xaf;" horiz-adv-x="952" d="M270 1198v16h496v-16h-496z" />
<glyph unicode="&#xb0;" horiz-adv-x="718" d="M164 1192q0 84 56.5 142.5t139.5 58.5q82 0 139.5 -59t57.5 -142q0 -89 -57 -145t-140 -56t-139.5 58.5t-56.5 142.5zM176 1192q0 -77 54 -132.5t130 -55.5q77 0 131 52.5t54 135.5q0 76 -55 132t-130 56q-76 0 -130 -55.5t-54 -132.5z" />
<glyph unicode="&#xb1;" d="M49 0v14h821v-14h-821zM49 559v14h400v406h14v-406h403v-14h-403v-426h-14v426h-400z" />
<glyph unicode="&#xb2;" horiz-adv-x="655" d="M57 754v10l432 485q30 33 46 77.5t16 82.5q0 82 -62.5 138.5t-173.5 56.5q-79 0 -145 -42t-90 -112l-12 4q24 73 93.5 117.5t153.5 44.5q118 0 183 -59.5t65 -147.5q0 -40 -16.5 -86t-48.5 -82l-424 -475h481v-12h-498z" />
<glyph unicode="&#xb3;" horiz-adv-x="655" d="M47 889l12 4q49 -137 236 -137q116 0 187 63t71 170q0 29 -10.5 61.5t-33 66t-67 55.5t-104.5 22h-100v12h96q52 0 93 17.5t64.5 46t35.5 60t12 63.5q0 91 -61 153t-183 62q-79 0 -139 -37t-88 -101l-13 5q28 67 92 106t148 39q124 0 190 -63t66 -164q0 -61 -41 -117.5 t-119 -75.5q50 -9 87 -35t54.5 -59.5t25 -62.5t7.5 -54q0 -113 -75 -179.5t-195 -66.5q-197 0 -248 146z" />
<glyph unicode="&#xb4;" horiz-adv-x="976" d="M451 1171l176 283l16 -10l-180 -277z" />
<glyph unicode="&#xb6;" horiz-adv-x="942" d="M41 1139q0 160 94 261t279 101h493v-12h-123v-1647h-12v1647h-287v-1647h-12v922h-59q-157 0 -265 99.5t-108 275.5z" />
<glyph unicode="&#xb7;" horiz-adv-x="292" d="M133 510v53h27v-53h-27z" />
<glyph unicode="&#xb8;" horiz-adv-x="829" d="M328 -365l4 13q62 -25 123 -25q94 0 137 40.5t43 88.5q0 50 -38 91.5t-138 52.5l-6 10l30 94h15l-33 -92q55 -6 93 -23.5t56 -41t25.5 -45.5t7.5 -46q0 -52 -46.5 -96.5t-145.5 -44.5q-67 0 -127 24z" />
<glyph unicode="&#xb9;" horiz-adv-x="524" d="M96 1507v15l195 88h12v-856h-12v843z" />
<glyph unicode="&#xba;" horiz-adv-x="698" d="M61 901q0 170 79 254t212 84q285 0 285 -346q0 -176 -78 -257t-213 -81q-137 0 -211 85.5t-74 260.5zM74 901q0 -168 70.5 -251t201.5 -83q129 0 204 78t75 248q0 334 -273 334q-126 0 -202 -81.5t-76 -244.5z" />
<glyph unicode="&#xbb;" horiz-adv-x="708" d="M164 94l231 342l-221 336h12l224 -336l-232 -342h-14zM350 94l232 342l-222 336h13l223 -336l-231 -342h-15z" />
<glyph unicode="&#xbc;" horiz-adv-x="1515" d="M170 1323v14l195 88h12v-856h-12v844zM262 -35l868 1501l13 -4l-869 -1501zM786 145v13l330 698h14l-329 -698h424v301h12v-301h106v-13h-106v-145h-12v145h-439z" />
<glyph unicode="&#xbd;" horiz-adv-x="1515" d="M137 1323v14l195 88h12v-856h-12v844zM227 -35l869 1501l12 -4l-868 -1501zM870 0v10l433 486q61 67 61 159q0 82 -62.5 138.5t-173.5 56.5q-79 0 -145 -42t-90 -112l-12 4q24 73 93.5 117.5t153.5 44.5q118 0 183 -59.5t65 -147.5q0 -40 -16.5 -86t-48.5 -82l-424 -475 h481v-12h-498z" />
<glyph unicode="&#xbe;" horiz-adv-x="1515" d="M78 705l12 4q49 -138 236 -138q116 0 187 63.5t71 170.5q0 29 -10.5 61.5t-33 66t-67 55.5t-104.5 22h-101v12h97q52 0 92.5 17.5t64 45.5t35.5 59.5t12 63.5q0 92 -60.5 153.5t-182.5 61.5q-79 0 -139.5 -37t-88.5 -100l-12 4q28 67 92 106.5t148 39.5q124 0 190 -63.5 t66 -164.5q0 -61 -40.5 -117t-119.5 -75q50 -9 87 -35t54.5 -59.5t25 -62.5t7.5 -54q0 -113 -75 -179.5t-195 -66.5q-197 0 -248 146zM373 -35l868 1501l12 -4l-868 -1501zM881 145v13l329 698h15l-330 -698h424v301h12v-301h107v-13h-107v-145h-12v145h-438z" />
<glyph unicode="&#xbf;" horiz-adv-x="858" d="M72 -82q0 53 13 99.5t44 93.5t50.5 70.5t64.5 74.5q85 93 123.5 161.5t38.5 155.5v183h12v-183q0 -90 -39 -159.5t-127 -165.5q-40 -43 -63 -71t-51 -71t-41 -89.5t-13 -98.5q0 -144 96.5 -239t249.5 -95q131 0 234 83.5t139 230.5l12 -4q-36 -150 -142.5 -236 t-242.5 -86q-160 0 -259 97.5t-99 248.5zM406 928v82h14v-82h-14z" />
<glyph unicode="&#xc0;" horiz-adv-x="1140" d="M20 0l545 1425h13l542 -1425h-14l-143 379h-787q-19 -50 -143 -379h-13zM180 391h778l-387 1022zM330 1698l12 14l268 -207l-8 -6z" />
<glyph unicode="&#xc1;" horiz-adv-x="1140" d="M20 0l545 1425h13l542 -1425h-14l-143 379h-787q-19 -50 -143 -379h-13zM180 391h778l-387 1022zM498 1505l268 207l12 -14l-272 -199z" />
<glyph unicode="&#xc2;" horiz-adv-x="1140" d="M20 0l545 1425h13l542 -1425h-14l-143 379h-787q-19 -50 -143 -379h-13zM180 391h778l-387 1022zM307 1473l262 221h15l256 -221l-9 -9l-256 215l-260 -215z" />
<glyph unicode="&#xc3;" horiz-adv-x="1140" d="M20 0l545 1425h13l542 -1425h-14l-143 379h-787q-19 -50 -143 -379h-13zM180 391h778l-387 1022zM301 1565q68 102 164 102q38 0 115.5 -48t109.5 -48q88 0 135 92l13 -4q-51 -100 -148 -100q-38 0 -115 48t-110 48q-88 0 -154 -96z" />
<glyph unicode="&#xc4;" horiz-adv-x="1140" d="M20 0l545 1425h13l542 -1425h-14l-143 379h-787q-19 -50 -143 -379h-13zM180 391h778l-387 1022zM442 1554v66h15v-66h-15zM686 1554v66h14v-66h-14z" />
<glyph unicode="&#xc5;" horiz-adv-x="1140" d="M20 0l545 1425h13l542 -1425h-14l-143 379h-787q-19 -50 -143 -379h-13zM180 391h778l-387 1022zM434 1618q0 60 38.5 100.5t98.5 40.5q65 0 102.5 -40.5t37.5 -100.5t-38 -101.5t-102 -41.5q-59 0 -98 39.5t-39 103.5zM446 1618q0 -58 36 -94.5t89 -36.5q58 0 92.5 38.5 t34.5 92.5t-34 91.5t-93 37.5q-54 0 -89.5 -37.5t-35.5 -91.5z" />
<glyph unicode="&#xc6;" horiz-adv-x="1826" d="M-2 0l977 1425h766v-12h-758v-661h664v-13h-664v-727h793v-12h-805v469h-637l-322 -469h-14zM342 481h629v920z" />
<glyph unicode="&#xc7;" horiz-adv-x="1105" d="M123 502v436q0 103 30.5 192t89.5 158t153.5 108.5t213.5 39.5q143 0 249 -63t165 -171l-12 -4q-56 105 -159 165t-243 60q-116 0 -208 -38.5t-149.5 -106t-87.5 -154t-30 -186.5v-436q0 -102 28.5 -190t83.5 -157t144 -110t203 -45h14h8q149 0 255.5 69t160.5 189l12 -4 q-58 -124 -165.5 -195t-262.5 -71h-12l-29 -80q55 -6 93 -23.5t56.5 -41t26 -45.5t7.5 -46q0 -52 -47 -96.5t-146 -44.5q-67 0 -127 24l4 13q62 -25 123 -25q94 0 137 40.5t43 88.5q0 50 -38 91.5t-138 52.5l-6 10l27 82q-116 4 -206.5 46.5t-146.5 112.5t-85 160.5 t-29 194.5z" />
<glyph unicode="&#xc8;" horiz-adv-x="1054" d="M143 0v1425h813v-12h-800v-659h708v-13h-708v-729h845v-12h-858zM319 1698l13 14l268 -207l-8 -6z" />
<glyph unicode="&#xc9;" horiz-adv-x="1054" d="M143 0v1425h813v-12h-800v-659h708v-13h-708v-729h845v-12h-858zM440 1505l269 207l12 -14l-272 -199z" />
<glyph unicode="&#xca;" horiz-adv-x="1054" d="M143 0v1425h813v-12h-800v-659h708v-13h-708v-729h845v-12h-858zM281 1499l262 221h14l256 -221l-8 -8l-256 215l-260 -215z" />
<glyph unicode="&#xcb;" horiz-adv-x="1054" d="M143 0v1425h813v-12h-800v-659h708v-13h-708v-729h845v-12h-858zM414 1554v66h14v-66h-14zM657 1554v66h15v-66h-15z" />
<glyph unicode="&#xcc;" horiz-adv-x="380" d="M-92 1698l12 14l268 -207l-8 -6zM184 0v1425h13v-1425h-13z" />
<glyph unicode="&#xcd;" horiz-adv-x="380" d="M131 1505l268 207l13 -14l-273 -199zM184 0v1425h13v-1425h-13z" />
<glyph unicode="&#xce;" horiz-adv-x="380" d="M-76 1499l262 221h15l256 -221l-8 -8l-256 215l-261 -215zM184 0v1425h13v-1425h-13z" />
<glyph unicode="&#xcf;" horiz-adv-x="380" d="M63 1554v66h15v-66h-15zM184 0v1425h13v-1425h-13zM307 1554v66h15v-66h-15z" />
<glyph unicode="&#xd0;" horiz-adv-x="1218" d="M33 752v12h110v661h455q174 0 280 -62t169 -192q31 -64 40 -166.5t9 -267.5q0 -188 -8 -291.5t-39 -175.5q-117 -270 -476 -270h-430v752h-110zM156 12h417q352 0 463 262q31 72 39 175.5t8 287.5q0 163 -9 264.5t-40 165.5q-59 128 -166 187t-270 59h-442v-649h510v-12 h-510v-740z" />
<glyph unicode="&#xd1;" horiz-adv-x="1296" d="M143 0v1425h13l985 -1405v1405h12v-1425h-12l-985 1405v-1405h-13zM369 1565q68 102 163 102q38 0 116 -48t110 -48q88 0 135 92l12 -4q-51 -100 -147 -100q-38 0 -115.5 48t-110.5 48q-87 0 -153 -96z" />
<glyph unicode="&#xd2;" horiz-adv-x="1210" d="M123 500v438q0 103 30.5 192t89 158t152.5 108.5t213 39.5q223 0 351 -137.5t128 -360.5v-438q0 -237 -128 -375.5t-351 -138.5q-122 0 -216.5 40.5t-152 111.5t-87 162.5t-29.5 199.5zM135 500q0 -104 28.5 -193.5t85 -159t148.5 -109.5t211 -40q217 0 342 135.5 t125 366.5v438q0 217 -125 351t-342 134q-115 0 -207 -38.5t-149 -106t-87 -154t-30 -186.5v-438zM385 1698l12 14l269 -207l-9 -6z" />
<glyph unicode="&#xd3;" horiz-adv-x="1210" d="M123 500v438q0 103 30.5 192t89 158t152.5 108.5t213 39.5q223 0 351 -137.5t128 -360.5v-438q0 -237 -128 -375.5t-351 -138.5q-122 0 -216.5 40.5t-152 111.5t-87 162.5t-29.5 199.5zM135 500q0 -104 28.5 -193.5t85 -159t148.5 -109.5t211 -40q217 0 342 135.5 t125 366.5v438q0 217 -125 351t-342 134q-115 0 -207 -38.5t-149 -106t-87 -154t-30 -186.5v-438zM541 1505l268 207l12 -14l-272 -199z" />
<glyph unicode="&#xd4;" horiz-adv-x="1210" d="M123 500v438q0 103 30.5 192t89 158t152.5 108.5t213 39.5q223 0 351 -137.5t128 -360.5v-438q0 -237 -128 -375.5t-351 -138.5q-122 0 -216.5 40.5t-152 111.5t-87 162.5t-29.5 199.5zM135 500q0 -104 28.5 -193.5t85 -159t148.5 -109.5t211 -40q217 0 342 135.5 t125 366.5v438q0 217 -125 351t-342 134q-115 0 -207 -38.5t-149 -106t-87 -154t-30 -186.5v-438zM334 1499l262 221h14l256 -221l-8 -8l-256 215l-260 -215z" />
<glyph unicode="&#xd5;" horiz-adv-x="1210" d="M123 500v438q0 103 30.5 192t89 158t152.5 108.5t213 39.5q223 0 351 -137.5t128 -360.5v-438q0 -237 -128 -375.5t-351 -138.5q-122 0 -216.5 40.5t-152 111.5t-87 162.5t-29.5 199.5zM135 500q0 -104 28.5 -193.5t85 -159t148.5 -109.5t211 -40q217 0 342 135.5 t125 366.5v438q0 217 -125 351t-342 134q-115 0 -207 -38.5t-149 -106t-87 -154t-30 -186.5v-438zM346 1626q68 103 164 103q38 0 115.5 -48.5t109.5 -48.5q88 0 135 92l13 -4q-51 -100 -148 -100q-38 0 -115 48t-110 48q-88 0 -154 -96z" />
<glyph unicode="&#xd6;" horiz-adv-x="1210" d="M123 500v438q0 103 30.5 192t89 158t152.5 108.5t213 39.5q223 0 351 -137.5t128 -360.5v-438q0 -237 -128 -375.5t-351 -138.5q-122 0 -216.5 40.5t-152 111.5t-87 162.5t-29.5 199.5zM135 500q0 -104 28.5 -193.5t85 -159t148.5 -109.5t211 -40q217 0 342 135.5 t125 366.5v438q0 217 -125 351t-342 134q-115 0 -207 -38.5t-149 -106t-87 -154t-30 -186.5v-438zM477 1554v66h15v-66h-15zM721 1554v66h14v-66h-14z" />
<glyph unicode="&#xd7;" d="M139 264l299 299l-286 287l10 8l287 -287l284 291l10 -10l-284 -289l301 -303l-10 -8l-301 301l-299 -299z" />
<glyph unicode="&#xd8;" horiz-adv-x="1210" d="M121 -4l104 160q-102 134 -102 344v438q0 103 30.5 192t89 158t152.5 108.5t213 39.5q227 0 357 -146l79 123l11 -6l-82 -125q114 -129 114 -344v-438q0 -237 -128 -375.5t-351 -138.5q-245 0 -375 159l-102 -155zM135 500q0 -204 96 -332l727 1112q-127 143 -350 143 q-115 0 -207 -38.5t-149 -106t-87 -154t-30 -186.5v-438zM240 158q127 -160 368 -160q217 0 342 135.5t125 366.5v438q0 204 -110 332z" />
<glyph unicode="&#xd9;" horiz-adv-x="1206" d="M123 475v950h12v-950q0 -141 62.5 -250.5t169 -167t237.5 -57.5q201 0 334 127t133 328v970h12v-970q0 -208 -136 -337.5t-343 -129.5q-135 0 -244 59t-173 171t-64 257zM414 1698l12 14l268 -207l-8 -6z" />
<glyph unicode="&#xda;" horiz-adv-x="1206" d="M123 475v950h12v-950q0 -141 62.5 -250.5t169 -167t237.5 -57.5q201 0 334 127t133 328v970h12v-970q0 -208 -136 -337.5t-343 -129.5q-135 0 -244 59t-173 171t-64 257zM506 1505l268 207l12 -14l-272 -199z" />
<glyph unicode="&#xdb;" horiz-adv-x="1206" d="M123 475v950h12v-950q0 -141 62.5 -250.5t169 -167t237.5 -57.5q201 0 334 127t133 328v970h12v-970q0 -208 -136 -337.5t-343 -129.5q-135 0 -244 59t-173 171t-64 257zM338 1499l262 221h14l256 -221l-8 -8l-256 215l-260 -215z" />
<glyph unicode="&#xdc;" horiz-adv-x="1206" d="M123 475v950h12v-950q0 -141 62.5 -250.5t169 -167t237.5 -57.5q201 0 334 127t133 328v970h12v-970q0 -208 -136 -337.5t-343 -129.5q-135 0 -244 59t-173 171t-64 257zM475 1554v66h14v-66h-14zM719 1554v66h14v-66h-14z" />
<glyph unicode="&#xdd;" horiz-adv-x="1015" d="M20 1425h15l477 -817l469 817h14l-479 -837v-588h-12v594zM430 1505l268 207l13 -14l-273 -199z" />
<glyph unicode="&#xde;" horiz-adv-x="1116" d="M143 0v1427h11v-317h493q70 0 131 -13t116.5 -43.5t95 -76t62.5 -114.5t23 -156q0 -70 -24.5 -137.5t-72.5 -125.5t-129.5 -93.5t-184.5 -35.5h-508v-315h-13zM156 328h508q100 0 179 34t125.5 90t70.5 121t24 134q0 104 -34 182t-93.5 122.5t-131.5 65.5t-157 21h-491 v-770z" />
<glyph unicode="&#xdf;" horiz-adv-x="1034" d="M152 2v1085q0 175 95.5 281.5t276.5 106.5q163 0 258 -95.5t95 -222.5q0 -66 -19 -126t-65 -110t-113 -69q113 -21 182.5 -135t69.5 -248q0 -104 -24.5 -187t-64 -135t-93 -86t-106.5 -47.5t-109 -13.5h-72v12h72q55 0 106.5 13t103 46t89.5 83.5t62 131.5t24 183 q0 62 -18.5 127t-52 121t-88.5 91.5t-120 35.5h-178v12h153q67 0 117.5 30t77.5 78t40 97t13 96q0 123 -91.5 214t-248.5 91q-176 0 -268 -103t-92 -272v-1085h-12z" />
<glyph unicode="&#xe0;" horiz-adv-x="950" d="M72 264q0 135 85 209t234 74h424v166q0 87 -25 146.5t-73 91t-106.5 44.5t-137.5 13q-196 0 -321 -101l-9 11q125 102 330 102q82 0 142.5 -13.5t110.5 -46.5t75.5 -95t25.5 -152v-713h-12v207q-19 -62 -66 -107t-107.5 -67t-115.5 -31.5t-108 -9.5q-158 0 -252 70 t-94 202zM84 264q0 -126 91 -193t243 -67q46 0 93 6.5t102 25t97 47.5t72 79t33 114v259h-424q-143 0 -225 -71t-82 -200zM303 1427l14 13l215 -252l-10 -6z" />
<glyph unicode="&#xe1;" horiz-adv-x="950" d="M72 264q0 135 85 209t234 74h424v166q0 87 -25 146.5t-73 91t-106.5 44.5t-137.5 13q-196 0 -321 -101l-9 11q125 102 330 102q82 0 142.5 -13.5t110.5 -46.5t75.5 -95t25.5 -152v-713h-12v207q-19 -62 -66 -107t-107.5 -67t-115.5 -31.5t-108 -9.5q-158 0 -252 70 t-94 202zM84 264q0 -126 91 -193t243 -67q46 0 93 6.5t102 25t97 47.5t72 79t33 114v259h-424q-143 0 -225 -71t-82 -200zM428 1171l176 283l17 -10l-181 -277z" />
<glyph unicode="&#xe2;" horiz-adv-x="950" d="M72 264q0 135 85 209t234 74h424v166q0 87 -25 146.5t-73 91t-106.5 44.5t-137.5 13q-196 0 -321 -101l-9 11q125 102 330 102q82 0 142.5 -13.5t110.5 -46.5t75.5 -95t25.5 -152v-713h-12v207q-19 -62 -66 -107t-107.5 -67t-115.5 -31.5t-108 -9.5q-158 0 -252 70 t-94 202zM84 264q0 -126 91 -193t243 -67q46 0 93 6.5t102 25t97 47.5t72 79t33 114v259h-424q-143 0 -225 -71t-82 -200zM215 1163l262 236h15l260 -238l-9 -8l-260 231l-260 -229z" />
<glyph unicode="&#xe3;" horiz-adv-x="950" d="M72 264q0 135 85 209t234 74h424v166q0 87 -25 146.5t-73 91t-106.5 44.5t-137.5 13q-196 0 -321 -101l-9 11q125 102 330 102q82 0 142.5 -13.5t110.5 -46.5t75.5 -95t25.5 -152v-713h-12v207q-19 -62 -66 -107t-107.5 -67t-115.5 -31.5t-108 -9.5q-158 0 -252 70 t-94 202zM84 264q0 -126 91 -193t243 -67q46 0 93 6.5t102 25t97 47.5t72 79t33 114v259h-424q-143 0 -225 -71t-82 -200zM221 1257q68 103 164 103q38 0 115.5 -48t109.5 -48q88 0 135 92l13 -4q-52 -101 -148 -101q-38 0 -115 48.5t-110 48.5q-87 0 -154 -97z" />
<glyph unicode="&#xe4;" horiz-adv-x="950" d="M72 264q0 135 85 209t234 74h424v166q0 87 -25 146.5t-73 91t-106.5 44.5t-137.5 13q-196 0 -321 -101l-9 11q125 102 330 102q82 0 142.5 -13.5t110.5 -46.5t75.5 -95t25.5 -152v-713h-12v207q-19 -62 -66 -107t-107.5 -67t-115.5 -31.5t-108 -9.5q-158 0 -252 70 t-94 202zM84 264q0 -126 91 -193t243 -67q46 0 93 6.5t102 25t97 47.5t72 79t33 114v259h-424q-143 0 -225 -71t-82 -200zM356 1264v65h17v-65h-17zM598 1264v65h16v-65h-16z" />
<glyph unicode="&#xe5;" horiz-adv-x="950" d="M72 264q0 135 85 209t234 74h424v166q0 87 -25 146.5t-73 91t-106.5 44.5t-137.5 13q-196 0 -321 -101l-9 11q125 102 330 102q82 0 142.5 -13.5t110.5 -46.5t75.5 -95t25.5 -152v-713h-12v207q-19 -62 -66 -107t-107.5 -67t-115.5 -31.5t-108 -9.5q-158 0 -252 70 t-94 202zM84 264q0 -126 91 -193t243 -67q46 0 93 6.5t102 25t97 47.5t72 79t33 114v259h-424q-143 0 -225 -71t-82 -200zM340 1309q0 60 38.5 100.5t98.5 40.5q65 0 102 -40.5t37 -100.5t-37.5 -102t-101.5 -42q-59 0 -98 40t-39 104zM352 1309q0 -58 36 -94.5t89 -36.5 q58 0 92.5 38.5t34.5 92.5t-34 91.5t-93 37.5q-54 0 -89.5 -37.5t-35.5 -91.5z" />
<glyph unicode="&#xe6;" horiz-adv-x="1673" d="M72 264q0 134 84.5 204.5t234.5 70.5h424v174q0 87 -25 146.5t-73 91t-106.5 44.5t-137.5 13q-196 0 -321 -101l-9 11q125 102 330 102q82 0 142.5 -13.5t110.5 -46.5t75.5 -95t25.5 -152v-54q14 81 43 144.5t66 103.5t84 65.5t92.5 35.5t95.5 10q83 0 148.5 -24t109 -66 t72 -101t41 -126t12.5 -144v-31h-764v-55q3 -112 29 -197t64.5 -135.5t93.5 -82.5t108 -43t115 -11q134 0 252 74l8 -13q-116 -73 -260 -73q-300 0 -387 260q-40 -121 -154 -189.5t-278 -68.5q-158 0 -252 70t-94 202zM84 264q0 -126 91 -193t243 -67q159 0 274.5 70 t151.5 196q-29 98 -29 226v30h-424q-144 0 -225.5 -67t-81.5 -195zM827 539h752v18q0 95 -20 173t-62 141.5t-116 99t-173 35.5q-55 0 -104.5 -12.5t-100 -45t-87 -83.5t-61.5 -134.5t-28 -191.5z" />
<glyph unicode="&#xe7;" horiz-adv-x="860" d="M102 506q0 138 33 240.5t92 161t131.5 86.5t159.5 28q149 0 268 -90l-8 -10q-118 88 -260 88q-67 0 -125 -16.5t-109.5 -54t-88.5 -94.5t-58.5 -143.5t-21.5 -195.5q0 -114 20.5 -201.5t55.5 -144t87 -92.5t110.5 -51t129.5 -15q78 0 153.5 24.5t129.5 67.5l8 -10 q-57 -44 -134 -69t-157 -25h-2l-29 -82q55 -6 93 -23.5t56.5 -41t26 -45.5t7.5 -46q0 -52 -47 -96.5t-146 -44.5q-67 0 -127 24l4 13q62 -25 123 -25q94 0 137 40.5t43 88.5q0 50 -38 91.5t-138 52.5l-6 10l27 84q-91 2 -160.5 29t-125 84.5t-85 159t-29.5 243.5z" />
<glyph unicode="&#xe8;" horiz-adv-x="960" d="M102 502q0 119 24 211.5t62.5 148.5t91.5 92.5t105.5 50t110.5 13.5q83 0 148.5 -24t109 -66t72 -101t41 -126t12.5 -144v-31h-764v-24q0 -119 24.5 -209.5t63 -144.5t94 -88t109.5 -46t118 -12q134 0 252 74l8 -13q-116 -73 -260 -73q-65 0 -121 12t-113 46.5t-97 89.5 t-65.5 148.5t-25.5 215.5zM115 539h751v18q0 95 -20 173t-62 141.5t-115.5 99t-172.5 35.5q-55 0 -104.5 -12.5t-100 -45t-87 -83.5t-61.5 -134.5t-28 -191.5zM334 1427l14 13l215 -252l-10 -6z" />
<glyph unicode="&#xe9;" horiz-adv-x="960" d="M102 502q0 119 24 211.5t62.5 148.5t91.5 92.5t105.5 50t110.5 13.5q83 0 148.5 -24t109 -66t72 -101t41 -126t12.5 -144v-31h-764v-24q0 -119 24.5 -209.5t63 -144.5t94 -88t109.5 -46t118 -12q134 0 252 74l8 -13q-116 -73 -260 -73q-65 0 -121 12t-113 46.5t-97 89.5 t-65.5 148.5t-25.5 215.5zM115 539h751v18q0 95 -20 173t-62 141.5t-115.5 99t-172.5 35.5q-55 0 -104.5 -12.5t-100 -45t-87 -83.5t-61.5 -134.5t-28 -191.5zM446 1171l177 283l16 -10l-180 -277z" />
<glyph unicode="&#xea;" horiz-adv-x="960" d="M102 502q0 119 24 211.5t62.5 148.5t91.5 92.5t105.5 50t110.5 13.5q83 0 148.5 -24t109 -66t72 -101t41 -126t12.5 -144v-31h-764v-24q0 -119 24.5 -209.5t63 -144.5t94 -88t109.5 -46t118 -12q134 0 252 74l8 -13q-116 -73 -260 -73q-65 0 -121 12t-113 46.5t-97 89.5 t-65.5 148.5t-25.5 215.5zM115 539h751v18q0 95 -20 173t-62 141.5t-115.5 99t-172.5 35.5q-55 0 -104.5 -12.5t-100 -45t-87 -83.5t-61.5 -134.5t-28 -191.5zM240 1163l262 236h14l260 -238l-8 -8l-260 231l-260 -229z" />
<glyph unicode="&#xeb;" horiz-adv-x="960" d="M102 502q0 119 24 211.5t62.5 148.5t91.5 92.5t105.5 50t110.5 13.5q83 0 148.5 -24t109 -66t72 -101t41 -126t12.5 -144v-31h-764v-24q0 -119 24.5 -209.5t63 -144.5t94 -88t109.5 -46t118 -12q134 0 252 74l8 -13q-116 -73 -260 -73q-65 0 -121 12t-113 46.5t-97 89.5 t-65.5 148.5t-25.5 215.5zM115 539h751v18q0 95 -20 173t-62 141.5t-115.5 99t-172.5 35.5q-55 0 -104.5 -12.5t-100 -45t-87 -83.5t-61.5 -134.5t-28 -191.5zM358 1264v65h17v-65h-17zM600 1264v65h16v-65h-16z" />
<glyph unicode="&#xec;" horiz-adv-x="339" d="M-27 1427l15 13l215 -252l-10 -6zM164 0v1014h12v-1014h-12z" />
<glyph unicode="&#xed;" horiz-adv-x="339" d="M147 1171l177 283l16 -10l-180 -277zM164 0v1014h12v-1014h-12z" />
<glyph unicode="&#xee;" horiz-adv-x="339" d="M-100 1163l262 236h14l260 -238l-8 -8l-260 231l-260 -229zM164 0v1014h12v-1014h-12z" />
<glyph unicode="&#xef;" horiz-adv-x="339" d="M39 1264v65h16v-65h-16zM164 0v1014h12v-1014h-12zM281 1264v65h16v-65h-16z" />
<glyph unicode="&#xf0;" horiz-adv-x="1001" d="M102 508q0 126 31 222.5t87 154.5t128 87t158 29q89 0 158.5 -28.5t114 -80.5t71.5 -116t39 -143q-2 204 -27.5 363t-97.5 272l-186 -133l-9 10l187 133q-119 175 -353 192v13q242 -17 365 -197l166 121l8 -10l-168 -121q76 -118 101.5 -283t25.5 -379q0 -75 -1.5 -124 t-10 -120.5t-24 -119t-45.5 -101.5t-72 -85.5t-106 -52.5t-146 -21q-193 0 -293.5 122t-100.5 396zM115 508q0 -267 97.5 -386.5t283.5 -119.5q189 0 290 119t101 391q0 68 -10.5 131.5t-38 128t-69 111.5t-109.5 76.5t-154 29.5q-175 0 -283 -120.5t-108 -360.5z" />
<glyph unicode="&#xf1;" horiz-adv-x="980" d="M123 0v1012h12v-307q32 139 136.5 226t236.5 87q166 0 258 -87.5t92 -254.5v-676h-12v676q0 161 -89 245.5t-249 84.5q-153 0 -263 -118.5t-110 -283.5v-604h-12zM219 1257q68 103 164 103q38 0 115.5 -48t109.5 -48q88 0 135 92l13 -4q-52 -101 -148 -101 q-38 0 -115 48.5t-110 48.5q-87 0 -154 -97z" />
<glyph unicode="&#xf2;" horiz-adv-x="1001" d="M102 512q0 133 31 232.5t87 159t127.5 88t158.5 28.5q89 0 158.5 -29.5t113 -78t71.5 -117t39 -141t11 -156.5q0 -114 -20 -202t-55.5 -145t-87 -94t-110.5 -52t-130 -15q-192 0 -293 123.5t-101 398.5zM115 512q0 -268 97.5 -389t283.5 -121q87 0 155 24.5t122.5 80 t84 154t29.5 237.5q0 78 -10.5 148t-37.5 137.5t-69 116t-109.5 78.5t-154.5 30q-174 0 -282.5 -124t-108.5 -372zM319 1427l15 13l215 -252l-10 -6z" />
<glyph unicode="&#xf3;" horiz-adv-x="1001" d="M102 512q0 133 31 232.5t87 159t127.5 88t158.5 28.5q89 0 158.5 -29.5t113 -78t71.5 -117t39 -141t11 -156.5q0 -114 -20 -202t-55.5 -145t-87 -94t-110.5 -52t-130 -15q-192 0 -293 123.5t-101 398.5zM115 512q0 -268 97.5 -389t283.5 -121q87 0 155 24.5t122.5 80 t84 154t29.5 237.5q0 78 -10.5 148t-37.5 137.5t-69 116t-109.5 78.5t-154.5 30q-174 0 -282.5 -124t-108.5 -372zM477 1171l176 283l17 -10l-181 -277z" />
<glyph unicode="&#xf4;" horiz-adv-x="1001" d="M102 512q0 133 31 232.5t87 159t127.5 88t158.5 28.5q89 0 158.5 -29.5t113 -78t71.5 -117t39 -141t11 -156.5q0 -114 -20 -202t-55.5 -145t-87 -94t-110.5 -52t-130 -15q-192 0 -293 123.5t-101 398.5zM115 512q0 -268 97.5 -389t283.5 -121q87 0 155 24.5t122.5 80 t84 154t29.5 237.5q0 78 -10.5 148t-37.5 137.5t-69 116t-109.5 78.5t-154.5 30q-174 0 -282.5 -124t-108.5 -372zM250 1163l262 236h14l260 -238l-8 -8l-260 231l-260 -229z" />
<glyph unicode="&#xf5;" horiz-adv-x="1001" d="M102 512q0 133 31 232.5t87 159t127.5 88t158.5 28.5q89 0 158.5 -29.5t113 -78t71.5 -117t39 -141t11 -156.5q0 -114 -20 -202t-55.5 -145t-87 -94t-110.5 -52t-130 -15q-192 0 -293 123.5t-101 398.5zM115 512q0 -268 97.5 -389t283.5 -121q87 0 155 24.5t122.5 80 t84 154t29.5 237.5q0 78 -10.5 148t-37.5 137.5t-69 116t-109.5 78.5t-154.5 30q-174 0 -282.5 -124t-108.5 -372zM238 1257q68 103 163 103q38 0 116 -48t110 -48q88 0 135 92l12 -4q-52 -101 -147 -101q-38 0 -115.5 48.5t-110.5 48.5q-86 0 -153 -97z" />
<glyph unicode="&#xf6;" horiz-adv-x="1001" d="M102 512q0 133 31 232.5t87 159t127.5 88t158.5 28.5q89 0 158.5 -29.5t113 -78t71.5 -117t39 -141t11 -156.5q0 -114 -20 -202t-55.5 -145t-87 -94t-110.5 -52t-130 -15q-192 0 -293 123.5t-101 398.5zM115 512q0 -268 97.5 -389t283.5 -121q87 0 155 24.5t122.5 80 t84 154t29.5 237.5q0 78 -10.5 148t-37.5 137.5t-69 116t-109.5 78.5t-154.5 30q-174 0 -282.5 -124t-108.5 -372zM377 1264v65h16v-65h-16zM618 1264v65h17v-65h-17z" />
<glyph unicode="&#xf7;" d="M70 559v14h776v-14h-776zM442 287q0 10 7 15t14 5q22 0 22 -20q0 -21 -22 -21q-9 0 -15 6t-6 15zM442 838q0 10 7 15t14 5q22 0 22 -20q0 -21 -22 -21q-9 0 -15 6t-6 15z" />
<glyph unicode="&#xf8;" horiz-adv-x="1001" d="M96 -14l99 137q-93 132 -93 389q0 133 31 232.5t87 159t127.5 88t158.5 28.5q172 0 266 -105l82 113l10 -6l-84 -115q119 -135 119 -409q0 -114 -20 -202t-55.5 -145t-87 -94t-110.5 -52t-130 -15q-196 0 -293 123l-97 -133zM115 512q0 -250 88 -377l561 768 q-98 105 -258 105q-174 0 -282.5 -124t-108.5 -372zM211 123q95 -121 285 -121q87 0 155 24.5t122.5 80t84 154t29.5 237.5q0 263 -115 397z" />
<glyph unicode="&#xf9;" horiz-adv-x="960" d="M123 332v682h12v-682q0 -162 84.5 -246t243.5 -84q152 0 257 117.5t105 283.5v611h13v-1014h-13v303q-32 -140 -131.5 -226.5t-230.5 -86.5q-165 0 -252.5 87t-87.5 255zM330 1427l14 13l215 -252l-10 -6z" />
<glyph unicode="&#xfa;" horiz-adv-x="960" d="M123 332v682h12v-682q0 -162 84.5 -246t243.5 -84q152 0 257 117.5t105 283.5v611h13v-1014h-13v303q-32 -140 -131.5 -226.5t-230.5 -86.5q-165 0 -252.5 87t-87.5 255zM434 1171l176 283l17 -10l-181 -277z" />
<glyph unicode="&#xfb;" horiz-adv-x="960" d="M123 332v682h12v-682q0 -162 84.5 -246t243.5 -84q152 0 257 117.5t105 283.5v611h13v-1014h-13v303q-32 -140 -131.5 -226.5t-230.5 -86.5q-165 0 -252.5 87t-87.5 255zM219 1163l262 236h15l260 -238l-8 -8l-261 231l-260 -229z" />
<glyph unicode="&#xfc;" horiz-adv-x="960" d="M123 332v682h12v-682q0 -162 84.5 -246t243.5 -84q152 0 257 117.5t105 283.5v611h13v-1014h-13v303q-32 -140 -131.5 -226.5t-230.5 -86.5q-165 0 -252.5 87t-87.5 255zM344 1264v65h16v-65h-16zM586 1264v65h16v-65h-16z" />
<glyph unicode="&#xfd;" horiz-adv-x="839" d="M20 1014h13l395 -1022l379 1022h12l-465 -1262q-32 -84 -87.5 -130t-123.5 -46h-45v12h45q63 0 116.5 44.5t82.5 123.5l78 217zM393 1171l176 283l17 -10l-180 -277z" />
<glyph unicode="&#xfe;" horiz-adv-x="972" d="M123 -410v1837h12v-743q55 336 363 336q182 0 277 -123.5t95 -398.5q0 -255 -100 -381.5t-276 -126.5q-68 0 -123.5 18.5t-94.5 49.5t-68 75.5t-46 93.5t-27 107v-744h-12zM135 512q0 -76 8.5 -142.5t32.5 -136t62.5 -119t104 -81t151.5 -31.5q169 0 266.5 124.5 t97.5 371.5q0 268 -92 389t-268 121q-363 0 -363 -496z" />
<glyph unicode="&#xff;" horiz-adv-x="839" d="M20 1014h13l395 -1022l379 1022h12l-465 -1262q-32 -84 -87.5 -130t-123.5 -46h-45v12h45q63 0 116.5 44.5t82.5 123.5l78 217zM289 1264v65h16v-65h-16zM530 1264v65h17v-65h-17z" />
<glyph unicode="&#x152;" horiz-adv-x="1554" d="M123 479v449q0 103 30.5 193.5t89 161.5t152.5 112t213 41q49 0 117 -11h737v-12h-725v-668h627v-12h-627v-721h756v-12h-758q-68 -14 -127 -14q-133 0 -228 33.5t-150.5 99t-81 154t-25.5 206.5zM135 479q0 -115 24.5 -201t79 -150t147 -97t222.5 -33q62 0 117 12v1401 q-55 12 -117 12q-115 0 -207 -40t-149 -109.5t-87 -157.5t-30 -188v-449z" />
<glyph unicode="&#x153;" horiz-adv-x="1744" d="M102 512q0 133 31 232.5t87 159t127.5 88t158.5 28.5q94 0 166 -32t116.5 -89.5t69.5 -127t35 -155.5q10 92 38.5 163.5t66 115.5t86.5 72.5t96.5 39.5t99.5 11q83 0 148.5 -24t109 -66t72 -101t41 -126t12.5 -144v-31h-764v-55q0 -109 25 -193.5t64.5 -135.5t94.5 -83.5 t110 -44.5t116 -12q134 0 252 74l8 -13q-116 -73 -260 -73q-57 0 -109 10.5t-105.5 38t-94 70.5t-70 113.5t-37.5 160.5q-12 -109 -46.5 -187t-88 -122t-118 -64t-144.5 -20q-192 0 -293 123.5t-101 398.5zM115 512q0 -268 97.5 -389t283.5 -121q381 0 391 469v27 q0 78 -10.5 148t-37.5 137.5t-69 116t-109.5 78.5t-154.5 30q-174 0 -282.5 -124t-108.5 -372zM899 539h752v18q0 95 -20 173t-62 141.5t-116 99t-173 35.5q-55 0 -104.5 -12.5t-100 -45t-87 -83.5t-61.5 -134.5t-28 -191.5z" />
<glyph unicode="&#x178;" horiz-adv-x="1015" d="M20 1425h15l477 -817l469 817h14l-479 -837v-588h-12v594zM383 1526v65h14v-65h-14zM627 1526v65h14v-65h-14z" />
<glyph unicode="&#x2c6;" horiz-adv-x="976" d="M215 1163l262 236h15l260 -238l-9 -8l-260 231l-260 -229z" />
<glyph unicode="&#x2dc;" horiz-adv-x="976" d="M213 1257q68 103 164 103q38 0 115.5 -48t109.5 -48q88 0 135 92l13 -4q-52 -101 -148 -101q-38 0 -115 48.5t-110 48.5q-87 0 -154 -97z" />
<glyph unicode="&#x2000;" horiz-adv-x="879" />
<glyph unicode="&#x2001;" horiz-adv-x="1759" />
<glyph unicode="&#x2002;" horiz-adv-x="879" />
<glyph unicode="&#x2003;" horiz-adv-x="1759" />
<glyph unicode="&#x2004;" horiz-adv-x="586" />
<glyph unicode="&#x2005;" horiz-adv-x="439" />
<glyph unicode="&#x2006;" horiz-adv-x="293" />
<glyph unicode="&#x2007;" horiz-adv-x="293" />
<glyph unicode="&#x2008;" horiz-adv-x="219" />
<glyph unicode="&#x2009;" horiz-adv-x="351" />
<glyph unicode="&#x200a;" horiz-adv-x="97" />
<glyph unicode="&#x2010;" horiz-adv-x="735" d="M113 537v18h508v-18h-508z" />
<glyph unicode="&#x2011;" horiz-adv-x="735" d="M113 537v18h508v-18h-508z" />
<glyph unicode="&#x2012;" horiz-adv-x="735" d="M113 537v18h508v-18h-508z" />
<glyph unicode="&#x2013;" horiz-adv-x="1003" d="M41 549v14h922v-14h-922z" />
<glyph unicode="&#x2014;" horiz-adv-x="1654" d="M41 549v14h1571v-14h-1571z" />
<glyph unicode="&#x2018;" horiz-adv-x="219" d="M63 1135l70 288h14l-55 -288h-29z" />
<glyph unicode="&#x2019;" horiz-adv-x="219" d="M63 1135l56 288h28l-69 -288h-15z" />
<glyph unicode="&#x201a;" horiz-adv-x="208" d="M55 -238l56 289h28l-69 -289h-15z" />
<glyph unicode="&#x201c;" horiz-adv-x="311" d="M59 1135l74 288h14l-59 -288h-29zM160 1135l73 288h15l-60 -288h-28z" />
<glyph unicode="&#x201d;" horiz-adv-x="311" d="M63 1135l56 288h28l-69 -288h-15zM164 1135l55 288h29l-70 -288h-14z" />
<glyph unicode="&#x201e;" horiz-adv-x="311" d="M55 -233l56 288h28l-69 -288h-15zM156 -233l55 288h29l-70 -288h-14z" />
<glyph unicode="&#x2022;" horiz-adv-x="671" d="M223 537q0 55 30 88.5t89 33.5q58 0 87.5 -33t29.5 -89q0 -53 -30 -87t-87 -34q-59 0 -89 33t-30 88z" />
<glyph unicode="&#x2026;" horiz-adv-x="753" d="M82 0v63h31v-63h-31zM348 0v63h31v-63h-31zM618 0v63h31v-63h-31z" />
<glyph unicode="&#x202f;" horiz-adv-x="351" />
<glyph unicode="&#x2039;" horiz-adv-x="540" d="M168 436l223 336h12l-221 -336l232 -342h-15z" />
<glyph unicode="&#x203a;" horiz-adv-x="540" d="M168 94l231 342l-221 336h12l224 -336l-232 -342h-14z" />
<glyph unicode="&#x205f;" horiz-adv-x="439" />
<glyph unicode="&#x20ac;" d="M20 618v13h72v211h-72v12h72v84q0 104 27 193.5t79.5 158.5t136 108.5t189.5 39.5q253 0 379 -209l-12 -8q-58 98 -151 151t-216 53q-103 0 -184.5 -38.5t-132 -106t-77 -154.5t-26.5 -188v-84h551v-12h-551v-211h555v-13h-555v-116q0 -104 25 -193.5t75 -159t132 -109.5 t188 -40q129 0 220 52.5t147 166.5l12 -4q-113 -227 -379 -227q-109 0 -193 40.5t-135.5 111.5t-77.5 162.5t-26 199.5v116h-72z" />
<glyph unicode="&#x2122;" horiz-adv-x="1611" d="M94 1415v12h537v-12h-258v-756h-13v756h-266zM729 659v768h19l337 -583l334 579h21v-764h-13v748l-335 -582h-13l-338 584v-750h-12z" />
<glyph unicode="&#x25fc;" horiz-adv-x="1013" d="M0 0v1014h1014v-1014h-1014z" />
</font>
</defs>
</svg>
